<svg width="101" height="100" viewBox="0 0 101 100" fill="none" xmlns="http://www.w3.org/2000/svg">
<path d="M74.1126 64.4891H69.4787L67.8363 62.9062C74.8752 54.699 78.5119 43.502 76.5176 31.6015C73.7607 15.3043 60.1521 2.28997 43.728 0.296783C18.9159 -2.75162 -1.96612 18.1182 1.08407 42.9158C3.07842 59.3302 16.1004 72.9308 32.4072 75.6861C44.3146 77.6793 55.5182 74.0446 63.7302 67.0099L65.314 68.6513V73.2825L90.2434 98.1973C92.6484 100.601 96.5784 100.601 98.9834 98.1973C101.388 95.7938 101.388 91.866 98.9834 89.4625L74.1126 64.4891ZM38.9181 64.4891C24.3124 64.4891 12.5223 52.7058 12.5223 38.1087C12.5223 23.5115 24.3124 11.7283 38.9181 11.7283C53.5239 11.7283 65.314 23.5115 65.314 38.1087C65.314 52.7058 53.5239 64.4891 38.9181 64.4891Z" fill="#7EB5DF"/>
</svg>
