<svg width="25" height="90" viewBox="0 0 25 90" fill="none" xmlns="http://www.w3.org/2000/svg">
<path d="M25 90V88.5938H0V90H25Z" fill="#3C4045"/>
<path d="M25 87.75V86.9063H0V87.75H25Z" fill="#3C4045"/>
<path d="M25 81.8438V80.7188H0V81.8438H25Z" fill="#3C4045"/>
<path d="M25 82.6875V82.125H0V82.6875H25Z" fill="#3C4045"/>
<path d="M25 86.3438V83.25H0V86.3438H25Z" fill="#3C4045"/>
<path d="M25 80.4375V79.0313H0V80.4375H25Z" fill="#3C4045"/>
<path d="M25 78.1875V77.3438H0V78.1875H25Z" fill="#3C4045"/>
<path d="M25 72.2813V71.1563H0V72.2813H25Z" fill="#3C4045"/>
<path d="M25 73.125V72.5625H0V73.125H25Z" fill="#3C4045"/>
<path d="M25 76.7813L25 73.6875H0L0 76.7813H25Z" fill="#3C4045"/>
<path d="M25 70.0313V68.625H0V70.0313H25Z" fill="#3C4045"/>
<path d="M25 67.7813V66.9375H0V67.7813H25Z" fill="#3C4045"/>
<path d="M25 61.875V60.75H0V61.875H25Z" fill="#3C4045"/>
<path d="M25 62.7188V62.1563H0V62.7188H25Z" fill="#3C4045"/>
<path d="M25 66.375V63.2813H0V66.375H25Z" fill="#3C4045"/>
<path d="M25 59.9063V58.5H0V59.9063H25Z" fill="#3C4045"/>
<path d="M25 57.6563V56.8125H0V57.6563H25Z" fill="#3C4045"/>
<path d="M25 51.75V50.625H0V51.75H25Z" fill="#3C4045"/>
<path d="M25 52.5938V52.0313H0V52.5938H25Z" fill="#3C4045"/>
<path d="M25 56.25V53.1563H0V56.25H25Z" fill="#3C4045"/>
<path d="M25 49.5V48.0938H0V49.5H25Z" fill="#3C4045"/>
<path d="M25 47.25V46.4063H0V47.25H25Z" fill="#3C4045"/>
<path d="M25 41.3438V40.2188H0V41.3438H25Z" fill="#3C4045"/>
<path d="M25 42.1875V41.625H0V42.1875H25Z" fill="#3C4045"/>
<path d="M25 45.8438L25 42.75H0L0 45.8438H25Z" fill="#3C4045"/>
<path d="M25 39.375V37.9688H0V39.375H25Z" fill="#3C4045"/>
<path d="M25 37.125V36.2813H0V37.125H25Z" fill="#3C4045"/>
<path d="M25 31.2188V30.0938H0V31.2188H25Z" fill="#3C4045"/>
<path d="M25 32.0625V31.5H0V32.0625H25Z" fill="#3C4045"/>
<path d="M25 35.7188V32.625H0V35.7188H25Z" fill="#3C4045"/>
<path d="M25 29.25V27.8438H0V29.25H25Z" fill="#3C4045"/>
<path d="M25 27V26.1563H0V27H25Z" fill="#3C4045"/>
<path d="M25 21.0938V19.9688H0V21.0938H25Z" fill="#3C4045"/>
<path d="M25 21.9375V21.375H0V21.9375H25Z" fill="#3C4045"/>
<path d="M25 25.5938V22.5H0V25.5938H25Z" fill="#3C4045"/>
<path d="M25 18.8438V17.4375H0V18.8438H25Z" fill="#3C4045"/>
<path d="M25 16.5938V15.75H0V16.5938H25Z" fill="#3C4045"/>
<path d="M25 10.6875V9.56251H0V10.6875H25Z" fill="#3C4045"/>
<path d="M25 11.5313V10.9688H0V11.5313H25Z" fill="#3C4045"/>
<path d="M25 15.1875L25 12.0938H0L0 15.1875H25Z" fill="#3C4045"/>
<path d="M25 9.28126V7.87501H0V9.28126H25Z" fill="#3C4045"/>
<path d="M25 7.03125V6.1875H0V7.03125H25Z" fill="#3C4045"/>
<path d="M25 1.12501V8.9407e-07H0V1.12501H25Z" fill="#3C4045"/>
<path d="M25 1.96875V1.40625H0V1.96875H25Z" fill="#3C4045"/>
<path d="M25 5.625V2.53126H0V5.625H25Z" fill="#3C4045"/>
</svg>
