<svg width="114" height="100" viewBox="0 0 114 100" fill="none" xmlns="http://www.w3.org/2000/svg">
<path d="M100 13.0432H84.9348L77.5272 1.93454C77.1303 1.33971 76.5929 0.851946 75.9624 0.51446C75.332 0.176974 74.6281 0.000185234 73.913 -0.000244141H39.1304C38.4154 0.000185234 37.7114 0.176974 37.081 0.51446C36.4506 0.851946 35.9132 1.33971 35.5163 1.93454L28.1033 13.0432H13.0435C9.58413 13.0432 6.26647 14.4175 3.82035 16.8636C1.37422 19.3097 0 22.6274 0 26.0867V86.9563C0 90.4156 1.37422 93.7333 3.82035 96.1794C6.26647 98.6255 9.58413 99.9998 13.0435 99.9998H100C103.459 99.9998 106.777 98.6255 109.223 96.1794C111.669 93.7333 113.043 90.4156 113.043 86.9563V26.0867C113.043 22.6274 111.669 19.3097 109.223 16.8636C106.777 14.4175 103.459 13.0432 100 13.0432ZM104.348 86.9563C104.348 88.1094 103.89 89.2153 103.074 90.0307C102.259 90.846 101.153 91.3041 100 91.3041H13.0435C11.8904 91.3041 10.7845 90.846 9.9691 90.0307C9.15373 89.2153 8.69565 88.1094 8.69565 86.9563V26.0867C8.69565 24.9336 9.15373 23.8277 9.9691 23.0123C10.7845 22.197 11.8904 21.7389 13.0435 21.7389H30.4348C31.1508 21.7394 31.8558 21.563 32.4872 21.2255C33.1187 20.8879 33.657 20.3997 34.0544 19.8041L41.4565 8.69541H71.5815L78.9891 19.8041C79.3865 20.3997 79.9248 20.8879 80.5562 21.2255C81.1877 21.563 81.8927 21.7394 82.6087 21.7389H100C101.153 21.7389 102.259 22.197 103.074 23.0123C103.89 23.8277 104.348 24.9336 104.348 26.0867V86.9563ZM56.5217 30.4345C51.7922 30.4345 47.1688 31.837 43.2364 34.4646C39.3039 37.0922 36.2389 40.8269 34.429 45.1965C32.619 49.566 32.1455 54.3741 33.0682 59.0128C33.9909 63.6515 36.2684 67.9124 39.6127 71.2567C42.957 74.601 47.2179 76.8785 51.8565 77.8011C56.4952 78.7238 61.3033 78.2503 65.6729 76.4404C70.0424 74.6304 73.7771 71.5654 76.4047 67.633C79.0323 63.7005 80.4348 59.0771 80.4348 54.3476C80.4276 48.0077 77.9059 41.9295 73.4229 37.4464C68.9399 32.9634 62.8617 30.4417 56.5217 30.4345ZM56.5217 69.565C53.512 69.565 50.5699 68.6725 48.0674 67.0004C45.5649 65.3283 43.6145 62.9516 42.4627 60.171C41.3109 57.3904 41.0096 54.3307 41.5967 51.3788C42.1839 48.4269 43.6332 45.7155 45.7614 43.5873C47.8896 41.4591 50.6011 40.0098 53.553 39.4226C56.5049 38.8354 59.5646 39.1368 62.3452 40.2885C65.1258 41.4403 67.5024 43.3908 69.1745 45.8933C70.8466 48.3957 71.7391 51.3379 71.7391 54.3476C71.7391 58.3835 70.1359 62.2541 67.2821 65.1079C64.4282 67.9617 60.5576 69.565 56.5217 69.565Z" fill="#3C4045"/>
</svg>
