<svg width="172" height="79" viewBox="0 0 172 79" fill="none" xmlns="http://www.w3.org/2000/svg">
<rect x="2.25" y="2.25" width="167.5" height="74.5" rx="37.25" stroke="#7EB5DF" stroke-width="4.5"/>
<path d="M40.2001 22.346C40.3308 22.1173 40.4941 21.9703 40.6901 21.905C40.7554 21.8723 40.8534 21.856 40.9841 21.856C41.9641 21.856 42.5684 22.052 42.7971 22.444C42.9604 22.738 43.1238 23.571 43.2871 24.943C43.4504 26.3477 43.5811 27.099 43.6791 27.197C43.8098 27.295 44.5938 27.3113 46.0311 27.246C47.6644 27.148 50.0491 27.099 53.1851 27.099H58.1341L58.3791 26.609C58.5098 26.315 58.5751 25.6617 58.5751 24.649C58.5751 23.669 58.7058 22.9993 58.9671 22.64C59.3591 22.1173 59.8328 21.856 60.3881 21.856C60.9434 21.8887 61.3844 22.1827 61.7111 22.738C61.9398 23.13 62.0704 23.571 62.1031 24.061C62.1358 24.4203 62.1521 26.168 62.1521 29.304C62.1521 32.44 62.1358 34.1877 62.1031 34.547C62.0704 35.037 61.9398 35.478 61.7111 35.87C61.4498 36.2293 61.1068 36.4907 60.6821 36.654C60.3881 36.752 58.9344 36.801 56.3211 36.801L50.5881 36.752C46.0474 36.6867 43.3034 36.6377 42.3561 36.605C41.4088 36.5397 40.8698 36.4253 40.7391 36.262C40.2491 35.8373 39.9878 35.3147 39.9551 34.694C39.8571 34.0407 39.8081 32.097 39.8081 28.863C39.8081 25.7597 39.8244 23.9957 39.8571 23.571C39.9224 22.983 40.0368 22.5747 40.2001 22.346ZM34.9081 40.917C34.9081 40.427 35.1041 40.0187 35.4961 39.692L36.0841 39.202L41.8171 39.349C42.5031 39.349 43.0421 39.3653 43.4341 39.398L57.1051 39.545C63.4751 39.5777 66.7908 39.6757 67.0521 39.839C67.3134 39.937 67.5584 40.182 67.7871 40.574C68.0158 40.9333 68.1301 41.2437 68.1301 41.505C68.1301 41.6683 67.9341 41.9787 67.5421 42.436L67.0031 43.073H60.3881C55.9781 43.073 53.6588 43.1383 53.4301 43.269C53.2014 43.3997 53.0544 44.2817 52.9891 45.915C52.8911 47.5483 52.8258 48.4303 52.7931 48.561C52.7604 48.8223 52.5971 49.1 52.3031 49.394C52.1071 49.6227 51.7968 49.737 51.3721 49.737C51.1108 49.737 50.8004 49.688 50.4411 49.59C49.9838 49.4593 49.6734 49.1653 49.5101 48.708C49.4121 48.3813 49.3304 47.4177 49.2651 45.817V45.033C49.2978 43.8243 49.1018 43.122 48.6771 42.926C48.2851 42.7627 46.7498 42.6483 44.0711 42.583H42.3071L36.0841 42.485L35.4961 42.093C35.1041 41.7337 34.9081 41.3417 34.9081 40.917ZM40.0531 46.258C40.4124 45.964 40.7228 45.817 40.9841 45.817C41.3434 45.817 41.7518 45.9313 42.2091 46.16C42.6991 46.4213 42.9604 46.6663 42.9931 46.895C43.0911 47.3523 43.1564 48.0547 43.1891 49.002C43.2218 49.8513 43.2871 50.7823 43.3851 51.795L43.5321 52.775L62.5441 52.824L62.9851 53.314C63.2464 53.6733 63.3934 54.098 63.4261 54.588C63.4261 55.0453 63.2954 55.4537 63.0341 55.813C62.6748 56.2703 62.0541 56.548 61.1721 56.646C60.8781 56.6787 60.0778 56.695 58.7711 56.695C57.0071 56.695 55.5044 56.6787 54.2631 56.646C49.9184 56.5807 46.5538 56.4827 44.1691 56.352L40.7881 56.156L40.2491 55.519L40.1021 55.421C39.8734 55.1923 39.7264 54.8657 39.6611 54.441C39.6284 54.2777 39.6121 53.657 39.6121 52.579L39.5631 50.668V49.59L39.5141 46.699L40.0531 46.258ZM43.6301 31.411C43.6301 32.4237 43.7118 32.979 43.8751 33.077C44.0058 33.2077 45.6391 33.273 48.7751 33.273H51.0291C51.3884 33.273 51.6824 33.2567 51.9111 33.224C55.1451 33.224 57.0234 33.175 57.5461 33.077C58.0688 32.979 58.3301 32.685 58.3301 32.195V31.999C58.3301 31.4763 58.2321 31.1497 58.0361 31.019C57.8401 30.8883 57.3174 30.7903 56.4681 30.725C55.4554 30.627 53.1034 30.578 49.4121 30.578C45.7534 30.578 43.8588 30.6107 43.7281 30.676C43.6628 30.8067 43.6301 31.0517 43.6301 31.411ZM75.8495 22.591C76.1109 22.493 76.6662 22.444 77.5155 22.444C78.4302 22.444 79.6715 22.493 81.2395 22.591C83.1995 22.7217 86.2539 22.787 90.4025 22.787H96.5275L97.8995 24.257V26.266C97.8995 28.0953 97.7852 29.402 97.5565 30.186C97.3279 31.068 96.9032 31.705 96.2825 32.097C95.9885 32.293 95.6129 32.391 95.1555 32.391L93.7835 32.44L91.0395 32.391C87.2502 32.3257 84.5715 32.293 83.0035 32.293C80.9782 32.293 79.7695 32.3747 79.3775 32.538C79.0182 32.7013 78.8385 33.273 78.8385 34.253V34.302C78.8385 35.2167 78.9529 35.7393 79.1815 35.87C79.4102 36.0333 81.2395 36.115 84.6695 36.115L90.9905 36.066C91.3825 36.0333 91.9705 36.017 92.7545 36.017C93.3099 35.9843 94.0449 35.968 94.9595 35.968C95.7435 35.968 96.2662 35.9843 96.5275 36.017C97.4095 36.0823 97.9649 36.1803 98.1935 36.311C98.3895 36.4417 98.6182 36.703 98.8795 37.095C99.1082 37.4217 99.2225 37.781 99.2225 38.173C99.2225 38.761 98.8959 39.2183 98.2425 39.545C98.0139 39.6757 97.6055 39.741 97.0175 39.741C96.7889 39.741 96.2172 39.7083 95.3025 39.643C93.5059 39.5123 89.9942 39.4143 84.7675 39.349H84.3755C79.9982 39.2837 77.5155 39.2183 76.9275 39.153C76.1762 39.055 75.6535 38.7447 75.3595 38.222V38.173C75.1635 37.8137 75.0655 36.5397 75.0655 34.351C75.0655 32.489 75.1472 31.264 75.3105 30.676C75.4739 30.088 75.8169 29.6797 76.3395 29.451C76.6989 29.2877 77.2379 29.1733 77.9565 29.108L85.6985 29.206C85.9272 29.2387 86.3682 29.255 87.0215 29.255L90.1575 29.304C91.6602 29.304 92.6075 29.255 92.9995 29.157C93.5875 29.059 93.9142 28.6833 93.9795 28.03V27.736C94.0122 27.5727 94.0285 27.344 94.0285 27.05C94.0285 26.7233 93.9795 26.511 93.8815 26.413C93.7509 26.2823 93.1955 26.217 92.2155 26.217C91.2355 26.217 88.8835 26.119 85.1595 25.923C80.9782 25.7597 78.5119 25.678 77.7605 25.678C76.9439 25.678 76.3722 25.6453 76.0455 25.58C75.7515 25.5147 75.5229 25.4003 75.3595 25.237C75.0329 24.943 74.8695 24.6 74.8695 24.208C74.8695 23.3913 75.1962 22.8523 75.8495 22.591ZM70.5575 44.347C70.5575 44.2163 70.5902 44.0203 70.6555 43.759C70.7862 43.4323 71.0149 43.2037 71.3415 43.073C71.7009 42.9097 74.4122 42.8117 79.4755 42.779C81.6315 42.7137 84.6042 42.681 88.3935 42.681C91.8889 42.681 94.3879 42.7137 95.8905 42.779C100.399 42.9423 102.865 43.1547 103.29 43.416C103.747 43.6773 104.008 44.0857 104.074 44.641V44.935C104.074 45.425 103.943 45.817 103.682 46.111C103.453 46.3723 103.061 46.5357 102.506 46.601C102.081 46.6337 100.644 46.601 98.1935 46.503L95.8415 46.405C95.3189 46.405 94.9922 46.4377 94.8615 46.503C94.6982 46.6663 94.6002 48.022 94.5675 50.57L94.4205 54.294C94.3225 55.0453 94.1592 55.5353 93.9305 55.764C93.6692 56.0253 93.2772 56.156 92.7545 56.156C92.1339 56.156 91.7092 56.0417 91.4805 55.813C91.2519 55.5843 91.0885 55.127 90.9905 54.441C90.9252 53.8857 90.8599 52.6443 90.7945 50.717C90.7619 48.071 90.6639 46.6663 90.5005 46.503C90.3372 46.3397 89.0469 46.2417 86.6295 46.209H85.0615C83.5589 46.209 82.7585 46.2743 82.6605 46.405C82.4972 46.5683 82.3175 47.6463 82.1215 49.639C81.9909 52.089 81.7949 53.706 81.5335 54.49C81.3049 55.2087 80.8475 55.617 80.1615 55.715C79.9982 55.7477 79.8022 55.764 79.5735 55.764C79.1162 55.764 78.7732 55.6497 78.5445 55.421C78.2505 55.0943 78.1035 54.539 78.1035 53.755C78.1035 53.069 78.1199 52.5137 78.1525 52.089L78.2015 49.149V46.062L74.6245 46.013C72.2399 45.9477 70.9822 45.8497 70.8515 45.719C70.7535 45.621 70.6719 45.327 70.6065 44.837L70.5575 44.347Z" fill="#7EB5DF"/>
<path d="M139.75 30.75L117.25 30.75C117.022 30.7507 116.799 30.8135 116.604 30.9317C116.409 31.0499 116.25 31.2189 116.145 31.4207C116.039 31.6224 115.99 31.8492 116.003 32.0766C116.017 32.304 116.092 32.5234 116.221 32.7112L127.471 48.9612C127.937 49.635 129.06 49.635 129.527 48.9612L140.777 32.7112C140.907 32.5238 140.984 32.3043 140.998 32.0765C141.012 31.8487 140.964 31.6214 140.858 31.4192C140.752 31.2171 140.593 31.0478 140.397 30.9298C140.202 30.8118 139.978 30.7496 139.75 30.75Z" fill="#7EB5DF"/>
</svg>
