<svg width="101" height="100" viewBox="0 0 101 100" fill="none" xmlns="http://www.w3.org/2000/svg">
<path d="M25.7137 8.33337H63.2137C65.4238 8.33337 67.5435 9.21135 69.1063 10.7742C70.6691 12.337 71.547 14.4566 71.547 16.6667V20.8334C71.547 21.9384 71.1081 22.9982 70.3267 23.7797C69.5452 24.5611 68.4854 25 67.3804 25C66.2753 25 65.2155 24.5611 64.4341 23.7797C63.6527 22.9982 63.2137 21.9384 63.2137 20.8334V16.6667H25.7137V83.3334H63.2137V79.1667C63.2137 78.0616 63.6527 77.0018 64.4341 76.2204C65.2155 75.439 66.2753 75 67.3804 75C68.4854 75 69.5452 75.439 70.3267 76.2204C71.1081 77.0018 71.547 78.0616 71.547 79.1667V83.3334C71.547 85.5435 70.6691 87.6631 69.1063 89.2259C67.5435 90.7887 65.4238 91.6667 63.2137 91.6667H25.7137C23.5036 91.6667 21.384 90.7887 19.8211 89.2259C18.2583 87.6631 17.3804 85.5435 17.3804 83.3334V16.6667C17.3804 14.4566 18.2583 12.337 19.8211 10.7742C21.384 9.21135 23.5036 8.33337 25.7137 8.33337Z" fill="#3c4045"/>
<path d="M70.693 67.8959C72.318 69.5209 74.943 69.5209 76.568 67.8959L91.518 52.9459C92.2992 52.1645 92.738 51.1049 92.738 50C92.738 48.8952 92.2992 47.8356 91.518 47.0542L76.568 32.1042C75.776 31.3883 74.7392 31.0042 73.6719 31.0311C72.6046 31.0581 71.5885 31.494 70.8336 32.249C70.0787 33.0039 69.6427 34.02 69.6158 35.0872C69.5888 36.1545 69.973 37.1913 70.6889 37.9834L78.5055 45.8334H42.3805C41.2755 45.8334 40.2157 46.2724 39.4343 47.0538C38.6529 47.8352 38.2139 48.895 38.2139 50C38.2139 51.1051 38.6529 52.1649 39.4343 52.9463C40.2157 53.7277 41.2755 54.1667 42.3805 54.1667H78.5055L70.6889 62.0167C69.9111 62.7976 69.4747 63.855 69.4755 64.9571C69.4763 66.0593 69.9142 67.1161 70.693 67.8959Z" fill="#3c4045"/>
</svg>
