<svg width="100" height="100" viewBox="0 0 100 100" fill="none" xmlns="http://www.w3.org/2000/svg">
<path d="M45 76.25C45 74.5924 45.6585 73.0027 46.8306 71.8306C48.0027 70.6585 49.5924 70 51.25 70C52.9076 70 54.4973 70.6585 55.6694 71.8306C56.8415 73.0027 57.5 74.5924 57.5 76.25C57.5 77.9076 56.8415 79.4973 55.6694 80.6694C54.4973 81.8415 52.9076 82.5 51.25 82.5C49.5924 82.5 48.0027 81.8415 46.8306 80.6694C45.6585 79.4973 45 77.9076 45 76.25ZM45 51.25C45 49.5924 45.6585 48.0027 46.8306 46.8306C48.0027 45.6585 49.5924 45 51.25 45C52.9076 45 54.4973 45.6585 55.6694 46.8306C56.8415 48.0027 57.5 49.5924 57.5 51.25C57.5 52.9076 56.8415 54.4973 55.6694 55.6694C54.4973 56.8415 52.9076 57.5 51.25 57.5C49.5924 57.5 48.0027 56.8415 46.8306 55.6694C45.6585 54.4973 45 52.9076 45 51.25ZM45 26.25C45 24.5924 45.6585 23.0027 46.8306 21.8306C48.0027 20.6585 49.5924 20 51.25 20C52.9076 20 54.4973 20.6585 55.6694 21.8306C56.8415 23.0027 57.5 24.5924 57.5 26.25C57.5 27.9076 56.8415 29.4973 55.6694 30.6694C54.4973 31.8415 52.9076 32.5 51.25 32.5C49.5924 32.5 48.0027 31.8415 46.8306 30.6694C45.6585 29.4973 45 27.9076 45 26.25Z" fill="#3c4045"/>
</svg>
