<svg width="100" height="101" viewBox="0 0 100 101" fill="none" xmlns="http://www.w3.org/2000/svg">
<path d="M91.6664 30.6664C91.6696 30.118 91.5645 29.5745 91.3571 29.0668C91.1498 28.5591 90.8442 28.0974 90.4581 27.7081L72.7914 10.0414C72.4021 9.65524 71.9403 9.34972 71.4327 9.14236C70.925 8.93501 70.3814 8.82991 69.8331 8.83308C69.2847 8.82991 68.7411 8.93501 68.2335 9.14236C67.7258 9.34972 67.2641 9.65524 66.8747 10.0414L55.0831 21.8331L9.54141 67.3747C9.15524 67.7641 8.84972 68.2258 8.64236 68.7335C8.43501 69.2411 8.32991 69.7847 8.33308 70.3331V87.9997C8.33308 89.1048 8.77206 90.1646 9.55347 90.946C10.3349 91.7274 11.3947 92.1664 12.4997 92.1664H30.1664C30.7494 92.1981 31.3326 92.1069 31.8782 91.8988C32.4237 91.6906 32.9194 91.3701 33.3331 90.9581L78.6247 45.4164L90.4581 33.8331C90.8384 33.4292 91.1483 32.9645 91.3747 32.4581C91.4149 32.126 91.4149 31.7902 91.3747 31.4581C91.3942 31.2641 91.3942 31.0687 91.3747 30.8747L91.6664 30.6664ZM28.4581 83.8331H16.6664V72.0414L58.0414 30.6664L69.8331 42.4581L28.4581 83.8331ZM75.7081 36.5831L63.9164 24.7914L69.8331 18.9164L81.5831 30.6664L75.7081 36.5831Z" fill="#D3D3D3"/>
</svg>
