<svg width="100" height="100" viewBox="0 0 100 100" fill="none" xmlns="http://www.w3.org/2000/svg">
<path d="M70.8333 58.3333C71.9384 58.3333 72.9982 57.8943 73.7796 57.1129C74.561 56.3315 75 55.2717 75 54.1667C75 53.0616 74.561 52.0018 73.7796 51.2204C72.9982 50.439 71.9384 50 70.8333 50C69.7283 50 68.6685 50.439 67.8871 51.2204C67.1056 52.0018 66.6667 53.0616 66.6667 54.1667C66.6667 55.2717 67.1056 56.3315 67.8871 57.1129C68.6685 57.8943 69.7283 58.3333 70.8333 58.3333ZM70.8333 75C71.9384 75 72.9982 74.561 73.7796 73.7796C74.561 72.9982 75 71.9384 75 70.8333C75 69.7283 74.561 68.6685 73.7796 67.8871C72.9982 67.1056 71.9384 66.6667 70.8333 66.6667C69.7283 66.6667 68.6685 67.1056 67.8871 67.8871C67.1056 68.6685 66.6667 69.7283 66.6667 70.8333C66.6667 71.9384 67.1056 72.9982 67.8871 73.7796C68.6685 74.561 69.7283 75 70.8333 75ZM54.1667 54.1667C54.1667 55.2717 53.7277 56.3315 52.9463 57.1129C52.1649 57.8943 51.1051 58.3333 50 58.3333C48.8949 58.3333 47.8351 57.8943 47.0537 57.1129C46.2723 56.3315 45.8333 55.2717 45.8333 54.1667C45.8333 53.0616 46.2723 52.0018 47.0537 51.2204C47.8351 50.439 48.8949 50 50 50C51.1051 50 52.1649 50.439 52.9463 51.2204C53.7277 52.0018 54.1667 53.0616 54.1667 54.1667ZM54.1667 70.8333C54.1667 71.9384 53.7277 72.9982 52.9463 73.7796C52.1649 74.561 51.1051 75 50 75C48.8949 75 47.8351 74.561 47.0537 73.7796C46.2723 72.9982 45.8333 71.9384 45.8333 70.8333C45.8333 69.7283 46.2723 68.6685 47.0537 67.8871C47.8351 67.1056 48.8949 66.6667 50 66.6667C51.1051 66.6667 52.1649 67.1056 52.9463 67.8871C53.7277 68.6685 54.1667 69.7283 54.1667 70.8333ZM29.1667 58.3333C30.2717 58.3333 31.3315 57.8943 32.1129 57.1129C32.8943 56.3315 33.3333 55.2717 33.3333 54.1667C33.3333 53.0616 32.8943 52.0018 32.1129 51.2204C31.3315 50.439 30.2717 50 29.1667 50C28.0616 50 27.0018 50.439 26.2204 51.2204C25.439 52.0018 25 53.0616 25 54.1667C25 55.2717 25.439 56.3315 26.2204 57.1129C27.0018 57.8943 28.0616 58.3333 29.1667 58.3333ZM29.1667 75C30.2717 75 31.3315 74.561 32.1129 73.7796C32.8943 72.9982 33.3333 71.9384 33.3333 70.8333C33.3333 69.7283 32.8943 68.6685 32.1129 67.8871C31.3315 67.1056 30.2717 66.6667 29.1667 66.6667C28.0616 66.6667 27.0018 67.1056 26.2204 67.8871C25.439 68.6685 25 69.7283 25 70.8333C25 71.9384 25.439 72.9982 26.2204 73.7796C27.0018 74.561 28.0616 75 29.1667 75Z" fill="#7EB5DF"/>
<path fill-rule="evenodd" clip-rule="evenodd" d="M29.1666 7.29175C29.9954 7.29175 30.7902 7.62099 31.3763 8.20704C31.9623 8.79309 32.2916 9.58795 32.2916 10.4167V13.5959C35.0499 13.5417 38.0874 13.5417 41.4291 13.5417H58.5666C61.9124 13.5417 64.9499 13.5417 67.7082 13.5959V10.4167C67.7082 9.58795 68.0375 8.79309 68.6235 8.20704C69.2096 7.62099 70.0044 7.29175 70.8332 7.29175C71.662 7.29175 72.4569 7.62099 73.0429 8.20704C73.629 8.79309 73.9582 9.58795 73.9582 10.4167V13.8626C75.0416 13.9459 76.0666 14.0501 77.0374 14.1792C81.9207 14.8376 85.8749 16.2209 88.9957 19.3376C92.1124 22.4584 93.4957 26.4126 94.1541 31.2959C94.7916 36.0459 94.7916 42.1084 94.7916 49.7667V58.5667C94.7916 66.2251 94.7916 72.2917 94.1541 77.0376C93.4957 81.9209 92.1124 85.8751 88.9957 88.9959C85.8749 92.1126 81.9207 93.4959 77.0374 94.1542C72.2874 94.7917 66.2249 94.7917 58.5666 94.7917H41.4374C33.7791 94.7917 27.7124 94.7917 22.9666 94.1542C18.0832 93.4959 14.1291 92.1126 11.0082 88.9959C7.89157 85.8751 6.50824 81.9209 5.8499 77.0376C5.2124 72.2876 5.2124 66.2251 5.2124 58.5667V49.7667C5.2124 42.1084 5.2124 36.0417 5.8499 31.2959C6.50824 26.4126 7.89157 22.4584 11.0082 19.3376C14.1291 16.2209 18.0832 14.8376 22.9666 14.1792C23.9374 14.0501 24.9666 13.9459 26.0457 13.8626V10.4167C26.0457 9.58867 26.3744 8.79444 26.9596 8.20851C27.5447 7.62258 28.3385 7.29285 29.1666 7.29175ZM23.7916 20.3751C19.6041 20.9376 17.1874 21.9959 15.4249 23.7584C13.6624 25.5209 12.6041 27.9376 12.0416 32.1292C11.9457 32.8376 11.8666 33.5876 11.7999 34.3751H88.1999C88.1332 33.5834 88.0541 32.8376 87.9582 32.1251C87.3957 27.9376 86.3374 25.5209 84.5749 23.7584C82.8124 21.9959 80.3957 20.9376 76.2041 20.3751C71.9249 19.8001 66.2791 19.7917 58.3332 19.7917H41.6666C33.7207 19.7917 28.0791 19.8001 23.7916 20.3751ZM11.4582 50.0001C11.4582 46.4417 11.4582 43.3459 11.5124 40.6251H88.4874C88.5416 43.3459 88.5416 46.4417 88.5416 50.0001V58.3334C88.5416 66.2792 88.5332 71.9251 87.9582 76.2084C87.3957 80.3959 86.3374 82.8126 84.5749 84.5751C82.8124 86.3376 80.3957 87.3959 76.2041 87.9584C71.9249 88.5334 66.2791 88.5417 58.3332 88.5417H41.6666C33.7207 88.5417 28.0791 88.5334 23.7916 87.9584C19.6041 87.3959 17.1874 86.3376 15.4249 84.5751C13.6624 82.8126 12.6041 80.3959 12.0416 76.2042C11.4666 71.9251 11.4582 66.2792 11.4582 58.3334V50.0001Z" fill="#7EB5DF"/>
</svg>
