<svg width="72" height="84" viewBox="0 0 72 84" fill="none" xmlns="http://www.w3.org/2000/svg">
<path d="M61 29.5L57.5 64.4917C56.9708 69.7958 56.7083 72.4458 55.5 74.45C54.4402 76.2142 52.8816 77.6249 51.0208 78.5042C48.9083 79.5 46.25 79.5 40.9167 79.5H31.0833C25.7542 79.5 23.0917 79.5 20.9792 78.5C19.1169 77.6214 17.5567 76.2106 16.4958 74.4458C15.2958 72.4458 15.0292 69.7958 14.4958 64.4917L11 29.5M42.25 56.5833V35.75M29.75 56.5833V35.75M4.75 19.0833H23.9792M23.9792 19.0833L25.5875 7.95C26.0542 5.925 27.7375 4.5 29.6708 4.5H42.3292C44.2625 4.5 45.9417 5.925 46.4125 7.95L48.0208 19.0833M23.9792 19.0833H48.0208M48.0208 19.0833H67.25" stroke="#3c4045" stroke-width="8.33" stroke-linecap="round" stroke-linejoin="round"/>
</svg>