<svg width="100" height="100" viewBox="0 0 100 100" fill="none" xmlns="http://www.w3.org/2000/svg">
<g clip-path="url(#clip0_1156_689)">
<circle cx="50" cy="50" r="50" fill="white"/>
<path d="M94.833 51.0415C94.833 47.7915 94.5413 44.6665 93.9997 41.6665H50.833V59.3957H75.4997C74.4372 65.1248 71.208 69.979 66.3538 73.229V84.729H81.1663C89.833 76.7498 94.833 64.9998 94.833 51.0415Z" fill="#4285F4"/>
<path d="M50.8343 95.8325C63.2093 95.8325 73.5843 91.7283 81.1676 84.7283L66.3551 73.2284C62.251 75.9784 57.001 77.6034 50.8343 77.6034C38.8968 77.6034 28.7926 69.5409 25.1885 58.7075H9.87598V70.5825C17.4176 85.5617 32.9176 95.8325 50.8343 95.8325Z" fill="#34A853"/>
<path d="M25.1875 58.7087C24.2708 55.9587 23.75 53.0212 23.75 50.0003C23.75 46.9795 24.2708 44.042 25.1875 41.292V29.417H9.875C6.66667 35.8039 4.99717 42.8529 5 50.0003C5 57.3962 6.77084 64.3962 9.875 70.5837L25.1875 58.7087Z" fill="#FBBC05"/>
<path d="M50.8343 22.3957C57.5635 22.3957 63.6051 24.7082 68.3551 29.2498L81.501 16.104C73.5635 8.70817 63.1885 4.1665 50.8343 4.1665C32.9176 4.1665 17.4176 14.4373 9.87598 29.4165L25.1885 41.2915C28.7926 30.4582 38.8968 22.3957 50.8343 22.3957Z" fill="#EA4335"/>
</g>
<defs>
<clipPath id="clip0_1156_689">
<rect width="100" height="100" fill="white"/>
</clipPath>
</defs>
</svg>
