<svg width="100" height="100" viewBox="0 0 100 100" fill="none" xmlns="http://www.w3.org/2000/svg">
<circle cx="50" cy="50" r="50" fill="#FEE500"/>
<path d="M50.1452 24.1313C34.5891 24.1313 22.0439 34.1674 22.0439 46.3513C22.0439 54.2598 27.2627 61.1847 35.091 65.139L32.4414 75.0347C32.3915 75.183 32.3838 75.3422 32.4192 75.4946C32.4547 75.6471 32.5319 75.7866 32.6421 75.8977C32.8029 76.0395 33.0098 76.1179 33.2242 76.1185C33.402 76.1042 33.5707 76.034 33.706 75.9178L45.107 68.2302C46.79 68.4625 48.4864 68.583 50.1853 68.5913C65.7213 68.5913 78.2866 58.5553 78.2866 46.3513C78.2866 34.1473 65.6812 24.1313 50.1452 24.1313Z" fill="#392020"/>
<path d="M31.8786 42.8388H28.8075C28.4269 42.8499 28.051 42.7524 27.7236 42.5578C27.5783 42.4667 27.4534 42.3466 27.3566 42.2049C27.2599 42.0633 27.1935 41.9032 27.1616 41.7347C27.1519 41.6279 27.1519 41.5206 27.1616 41.4138C27.1521 41.2139 27.1909 41.0145 27.2747 40.8328C27.3586 40.6511 27.485 40.4924 27.6433 40.37C27.9933 40.1165 28.4156 39.9826 28.8477 39.9885H38.101C38.4847 39.975 38.8632 40.0802 39.1849 40.2896C39.3337 40.3766 39.4613 40.4957 39.5585 40.638C39.6556 40.7803 39.72 40.9424 39.747 41.1126C39.7567 41.2127 39.7567 41.3136 39.747 41.4138C39.7564 41.6165 39.7177 41.8186 39.634 42.0035C39.5502 42.1884 39.4239 42.3508 39.2652 42.4774C38.9238 42.7305 38.5055 42.8583 38.0809 42.8388H35.1102V53.3969C35.1223 53.6218 35.0875 53.8467 35.008 54.0575C34.9286 54.2682 34.8062 54.4603 34.6486 54.6213C34.4975 54.7752 34.3158 54.8958 34.1153 54.9753C33.9148 55.0548 33.6999 55.0914 33.4844 55.0829C33.1074 55.0936 32.7384 54.9732 32.4406 54.7418C32.1571 54.5158 31.9647 54.1949 31.8987 53.8384C31.8788 53.6919 31.8788 53.5434 31.8987 53.3969L31.8786 42.8388Z" fill="#FEE500"/>
<path d="M40.6328 40.7712C40.7211 40.4409 40.9285 40.1549 41.2149 39.9683C41.5202 39.7953 41.868 39.7118 42.2186 39.7274H42.9813C43.3532 39.7141 43.7216 39.8045 44.0451 39.9884C44.388 40.219 44.6316 40.57 44.7276 40.9719L48.7421 52.3128C48.8461 52.6087 48.9333 52.9104 49.003 53.2162C49.0099 53.3433 49.0099 53.4704 49.003 53.5975C49.0098 53.7931 48.9738 53.9879 48.8975 54.1681C48.8212 54.3484 48.7065 54.5099 48.5614 54.6413C48.4208 54.7854 48.252 54.899 48.0655 54.975C47.879 55.051 47.6788 55.0876 47.4775 55.0828C47.1679 55.1136 46.857 55.0393 46.5948 54.8718C46.3326 54.7043 46.1345 54.4534 46.0323 54.1596L45.1893 51.6907H39.9102L39.0672 54.1596C38.9675 54.4592 38.767 54.715 38.4998 54.8834C38.2326 55.0517 37.9153 55.1222 37.6019 55.0828C37.2625 55.0917 36.93 54.9856 36.6585 54.7817C36.394 54.5713 36.2155 54.2716 36.1567 53.9388C36.1461 53.8253 36.1461 53.711 36.1567 53.5975C36.1222 53.3982 36.1222 53.1947 36.1567 52.9955C36.1567 52.7747 36.2972 52.5336 36.3775 52.3128L40.6328 40.7712ZM42.6401 43.4008L40.7332 49.4225H44.5269L42.6401 43.4008Z" fill="#FEE500"/>
<path d="M49.4627 41.4135C49.4423 40.9631 49.601 40.5229 49.9043 40.1891C50.0584 40.0336 50.2435 39.9121 50.4474 39.8326C50.6514 39.7531 50.8698 39.7171 51.0885 39.7273C51.4646 39.7229 51.8315 39.8429 52.1323 40.0686C52.4111 40.304 52.5962 40.6315 52.6542 40.9918C52.6739 41.1316 52.6739 41.2737 52.6542 41.4135V51.9716H58.1741C58.5567 51.9666 58.9328 52.0708 59.258 52.2725C59.4041 52.3626 59.5297 52.4825 59.6265 52.6243C59.7233 52.7661 59.7892 52.9266 59.82 53.0955C59.82 53.0955 59.82 53.2963 59.82 53.3966C59.8295 53.5965 59.7907 53.7956 59.7069 53.9773C59.623 54.159 59.4966 54.318 59.3383 54.4404C58.9883 54.6939 58.566 54.8275 58.1339 54.8217H51.3495C50.9174 54.8495 50.4879 54.737 50.1251 54.5007C49.8005 54.258 49.5843 53.8976 49.5229 53.4971C49.5082 53.2765 49.5082 53.0551 49.5229 52.8345L49.4627 41.4135Z" fill="#FEE500"/>
<path d="M60.1822 41.414C60.1702 40.9649 60.3278 40.5277 60.6238 40.1897C60.9246 39.9163 61.3105 39.7549 61.7164 39.7329C62.1222 39.711 62.5233 39.8298 62.8518 40.0691C63.1367 40.3025 63.3289 40.6298 63.3937 40.9924C63.4037 41.1327 63.4037 41.2737 63.3937 41.414V46.3317L68.472 40.4705C68.6677 40.2705 68.8755 40.083 69.0943 39.9086C69.3004 39.7858 69.5369 39.7231 69.7767 39.7278C70.1276 39.7259 70.4706 39.8309 70.7603 40.0289C70.8968 40.1208 71.0133 40.2394 71.103 40.3773C71.1926 40.5153 71.2536 40.6698 71.2822 40.8319C71.2903 40.8716 71.2903 40.9127 71.2822 40.9524C71.2724 40.9987 71.2724 41.0465 71.2822 41.0928C71.2815 41.304 71.2262 41.5116 71.1216 41.6951C71.0151 41.8894 70.8872 42.071 70.7402 42.2368L67.4082 45.8901L71.4227 52.1125V52.3132C71.6311 52.6008 71.7936 52.9193 71.9044 53.2568V53.357C71.9276 53.5895 71.8941 53.8243 71.8067 54.0411C71.7193 54.2578 71.5806 54.45 71.4026 54.6014C71.0678 54.8545 70.6581 54.9888 70.2384 54.9829C69.9595 54.9944 69.6826 54.9319 69.4355 54.8021C69.1682 54.6228 68.9479 54.3819 68.7932 54.0996L65.0598 48.0779L63.2733 49.9448V53.2967C63.2853 53.7458 63.1277 54.183 62.8317 54.5211C62.6731 54.6761 62.4844 54.7972 62.2773 54.8766C62.0702 54.956 61.849 54.9922 61.6274 54.9829C61.257 54.9907 60.8954 54.87 60.6037 54.6416C60.3202 54.4156 60.1277 54.095 60.0618 53.7385C60.0419 53.5919 60.0419 53.4432 60.0618 53.2967L60.1822 41.414Z" fill="#FEE500"/>
</svg>
