<svg width="167" height="153" viewBox="0 0 167 153" fill="none" xmlns="http://www.w3.org/2000/svg">
<g clip-path="url(#clip0_1142_613)">
<path d="M127.25 87.5C127.25 87.5 133.5 87.5 133.5 81.25C133.5 75 127.25 56.25 102.25 56.25C77.25 56.25 71 75 71 81.25C71 87.5 77.25 87.5 77.25 87.5H127.25ZM77.3875 81.25L77.25 81.225C77.2563 79.575 78.2938 74.7875 82 70.475C85.45 66.4313 91.5125 62.5 102.25 62.5C112.981 62.5 119.044 66.4375 122.5 70.475C126.206 74.7875 127.237 79.5813 127.25 81.225L127.2 81.2375L127.112 81.25H77.3875ZM102.25 43.75C105.565 43.75 108.745 42.433 111.089 40.0888C113.433 37.7446 114.75 34.5652 114.75 31.25C114.75 27.9348 113.433 24.7554 111.089 22.4112C108.745 20.067 105.565 18.75 102.25 18.75C98.9348 18.75 95.7554 20.067 93.4112 22.4112C91.067 24.7554 89.75 27.9348 89.75 31.25C89.75 34.5652 91.067 37.7446 93.4112 40.0888C95.7554 42.433 98.9348 43.75 102.25 43.75ZM121 31.25C121 33.7123 120.515 36.1505 119.573 38.4253C118.63 40.7002 117.249 42.7672 115.508 44.5083C113.767 46.2494 111.7 47.6305 109.425 48.5727C107.15 49.515 104.712 50 102.25 50C99.7877 50 97.3495 49.515 95.0747 48.5727C92.7998 47.6305 90.7328 46.2494 88.9917 44.5083C87.2506 42.7672 85.8695 40.7002 84.9273 38.4253C83.985 36.1505 83.5 33.7123 83.5 31.25C83.5 26.2772 85.4754 21.5081 88.9917 17.9917C92.5081 14.4754 97.2772 12.5 102.25 12.5C107.223 12.5 111.992 14.4754 115.508 17.9917C119.025 21.5081 121 26.2772 121 31.25ZM76.85 58C74.3485 57.2182 71.7719 56.7008 69.1625 56.4562C67.6961 56.3132 66.2234 56.2444 64.75 56.25C39.75 56.25 33.5 75 33.5 81.25C33.5 85.4167 35.5833 87.5 39.75 87.5H66.1C65.1739 85.5487 64.7119 83.4096 64.75 81.25C64.75 74.9375 67.1063 68.4875 71.5625 63.1C73.0813 61.2625 74.85 59.5437 76.85 58ZM64.25 62.5C60.5533 68.059 58.5553 74.5742 58.5 81.25H39.75C39.75 79.625 40.775 74.8125 44.5 70.475C47.9063 66.5 53.825 62.625 64.25 62.5063V62.5ZM42.875 34.375C42.875 29.4022 44.8504 24.6331 48.3667 21.1167C51.8831 17.6004 56.6522 15.625 61.625 15.625C66.5978 15.625 71.3669 17.6004 74.8833 21.1167C78.3996 24.6331 80.375 29.4022 80.375 34.375C80.375 39.3478 78.3996 44.1169 74.8833 47.6333C71.3669 51.1496 66.5978 53.125 61.625 53.125C56.6522 53.125 51.8831 51.1496 48.3667 47.6333C44.8504 44.1169 42.875 39.3478 42.875 34.375ZM61.625 21.875C58.3098 21.875 55.1304 23.192 52.7862 25.5362C50.442 27.8804 49.125 31.0598 49.125 34.375C49.125 37.6902 50.442 40.8696 52.7862 43.2138C55.1304 45.558 58.3098 46.875 61.625 46.875C64.9402 46.875 68.1196 45.558 70.4638 43.2138C72.808 40.8696 74.125 37.6902 74.125 34.375C74.125 31.0598 72.808 27.8804 70.4638 25.5362C68.1196 23.192 64.9402 21.875 61.625 21.875Z" fill="#979797"/>
</g>
<path d="M25.8956 115.47C26.1356 115.26 26.5256 115.155 27.0656 115.155C27.5156 115.155 27.8606 115.275 28.1006 115.515C28.2506 115.695 28.3406 116.28 28.3706 117.27C28.4006 117.72 28.4156 119.22 28.4156 121.77L28.4606 126.225C28.4906 127.875 28.5056 129.855 28.5056 132.165C28.5056 133.815 28.4906 134.82 28.4606 135.18C28.4006 136.26 28.3106 136.905 28.1906 137.115C28.0406 137.385 27.9056 137.535 27.7856 137.565C27.6056 137.625 27.3806 137.655 27.1106 137.655C26.1806 137.655 25.5956 137.31 25.3556 136.62C25.2356 136.35 25.1306 134.64 25.0406 131.49C25.0106 128.46 24.9356 126.84 24.8156 126.63C24.7256 126.42 23.8106 126.3 22.0706 126.27C20.3306 126.18 19.1906 126.015 18.6506 125.775C18.1706 125.565 17.9756 125.1 18.0656 124.38C18.1256 124.05 18.3206 123.78 18.6506 123.57C18.8606 123.39 19.1606 123.27 19.5506 123.21C19.7606 123.18 20.5556 123.165 21.9356 123.165C23.7056 123.165 24.6656 123.09 24.8156 122.94C24.9056 122.79 24.9956 121.98 25.0856 120.51C25.2356 118.41 25.3406 117.135 25.4006 116.685C25.4906 116.055 25.6556 115.65 25.8956 115.47ZM0.965606 118.575C0.935605 118.485 0.920605 118.35 0.920605 118.17C0.920605 117.72 1.08561 117.375 1.41561 117.135C1.83561 116.835 2.64561 116.67 3.84561 116.64C5.34561 116.58 7.89561 116.55 11.4956 116.55L17.3906 116.505L17.8406 117C18.1706 117.33 18.3356 117.645 18.3356 117.945C18.3356 118.215 18.2456 118.485 18.0656 118.755C17.8856 119.055 17.5556 119.25 17.0756 119.34C16.6256 119.46 15.7556 119.52 14.4656 119.52C12.8456 119.55 11.9006 119.595 11.6306 119.655C11.3306 119.685 11.1356 119.865 11.0456 120.195C10.9256 120.465 10.8206 121.155 10.7306 122.265C10.7006 123.015 10.7006 123.48 10.7306 123.66C10.7606 123.87 10.8956 124.155 11.1356 124.515C11.5256 125.115 12.3056 125.955 13.4756 127.035C14.4056 127.935 15.5456 128.895 16.8956 129.915C17.8256 130.635 18.2906 131.265 18.2906 131.805C18.2906 132.225 18.0356 132.585 17.5256 132.885C17.2256 133.035 16.9556 133.11 16.7156 133.11C16.5356 133.11 16.3556 133.065 16.1756 132.975C15.7256 132.795 14.8256 132.165 13.4756 131.085C11.7356 129.675 10.4756 128.595 9.69561 127.845C9.57561 127.725 9.41061 127.665 9.20061 127.665C9.02061 127.665 8.52561 128.1 7.71561 128.97C6.96561 129.75 6.18561 130.695 5.37561 131.805C4.77561 132.585 4.31061 133.08 3.98061 133.29C3.59061 133.53 3.18561 133.65 2.76561 133.65C2.34561 133.65 1.95561 133.455 1.59561 133.065C1.20561 132.705 1.01061 132.405 1.01061 132.165C1.01061 131.535 1.76061 130.425 3.26061 128.835C5.30061 126.705 6.56061 125.25 7.04061 124.47C7.25061 124.17 7.44561 123.33 7.62561 121.95C7.74561 120.87 7.80561 120.3 7.80561 120.24C7.80561 120.03 7.77561 119.895 7.71561 119.835C7.50561 119.715 6.81561 119.64 5.64561 119.61C4.44561 119.55 3.63561 119.55 3.21561 119.61H2.99061C2.60061 119.61 2.19561 119.52 1.77561 119.34C1.26561 119.1 0.995606 118.845 0.965606 118.575ZM5.60061 142.02C5.60061 139.41 5.69061 137.625 5.87061 136.665C6.02061 136.005 6.30561 135.66 6.72561 135.63C6.84561 135.6 6.99561 135.585 7.17561 135.585C7.89561 135.585 8.40561 135.915 8.70561 136.575C8.79561 136.725 8.87061 137.715 8.93061 139.545C8.93061 141.345 8.97561 142.32 9.06561 142.47C9.18561 142.59 11.2856 142.65 15.3656 142.65H18.2906L27.3806 142.56L27.7856 143.055C28.0256 143.355 28.1456 143.715 28.1456 144.135C28.1456 144.615 27.9956 145.005 27.6956 145.305C27.3956 145.515 26.9456 145.635 26.3456 145.665C25.8656 145.725 23.9456 145.755 20.5856 145.755H16.1306H15.0056C10.5056 145.695 7.94061 145.635 7.31061 145.575C6.56061 145.485 6.06561 145.185 5.82561 144.675C5.82561 144.615 5.81061 144.57 5.78061 144.54C5.66061 144.12 5.60061 143.28 5.60061 142.02ZM60.2099 115.2C60.5699 115.2 60.8849 115.26 61.1549 115.38C61.5149 115.59 61.7549 115.875 61.8749 116.235C61.9949 116.505 62.0999 121.05 62.1899 129.87L62.2349 137.88C62.2349 141.54 62.1899 143.595 62.0999 144.045C62.0699 144.555 61.8899 144.96 61.5599 145.26C61.3499 145.53 61.1849 145.68 61.0649 145.71C60.9749 145.74 60.6599 145.755 60.1199 145.755C59.5499 145.725 59.2199 145.665 59.1299 145.575C58.7999 145.245 58.6349 143.355 58.6349 139.905V130.905L58.6799 116.73C58.6799 116.43 58.8299 116.115 59.1299 115.785C59.4299 115.425 59.6849 115.23 59.8949 115.2H60.2099ZM33.6599 138.195C33.6599 137.685 33.7199 137.295 33.8399 137.025C34.0199 136.665 34.2749 136.305 34.6049 135.945L35.6849 134.685L36.4499 133.785L37.1699 132.975C38.3699 131.535 39.4949 129.99 40.5449 128.34C41.1149 127.41 41.5049 126.42 41.7149 125.37C41.8949 124.5 42.0149 123 42.0749 120.87L42.1649 117.855L42.7949 117.315C43.2149 116.955 43.5299 116.775 43.7399 116.775C44.0099 116.775 44.2949 116.88 44.5949 117.09C44.8949 117.3 45.0899 117.51 45.1799 117.72C45.2999 117.96 45.3599 118.8 45.3599 120.24V121.725C45.2699 124.095 45.1199 125.595 44.9099 126.225C44.8499 126.465 45.2249 126.99 46.0349 127.8L48.0149 129.87L48.5999 130.455C48.7499 130.665 49.0649 131.01 49.5449 131.49L50.4449 132.525C52.1849 134.355 53.2649 135.72 53.6849 136.62C53.8649 136.98 53.9549 137.295 53.9549 137.565C53.9549 137.985 53.7749 138.33 53.4149 138.6C53.1149 138.84 52.7699 138.96 52.3799 138.96C52.1399 138.96 51.8999 138.885 51.6599 138.735C51.5399 138.645 51.1499 138.255 50.4899 137.565C46.0499 132.795 43.7399 130.38 43.5599 130.32H43.4699C43.3199 130.32 43.1699 130.395 43.0199 130.545C42.8099 130.755 42.4499 131.25 41.9399 132.03L41.5349 132.615L40.8599 133.56L40.2749 134.37C38.4149 136.95 37.2449 138.51 36.7649 139.05C36.2249 139.65 35.7149 139.95 35.2349 139.95C34.8149 139.95 34.4399 139.815 34.1099 139.545C33.9299 139.425 33.8099 139.26 33.7499 139.05C33.6899 138.87 33.6599 138.585 33.6599 138.195ZM95.0399 115.785C95.1899 115.785 95.3849 115.86 95.6249 116.01C95.8949 116.16 96.0899 116.325 96.2099 116.505C96.2999 116.595 96.3749 117.375 96.4349 118.845C96.4649 119.805 96.4799 123.57 96.4799 130.14V131.445C96.4799 137.595 96.4499 141.42 96.3899 142.92C96.2999 144.09 96.0149 144.78 95.5349 144.99L95.4449 145.035C95.2349 145.155 95.0699 145.215 94.9499 145.215C94.7399 145.215 94.4999 145.155 94.2299 145.035C94.2299 145.035 94.1549 145.005 94.0049 144.945C93.4649 144.765 93.1649 144.24 93.1049 143.37C93.0149 142.5 92.9699 139.545 92.9699 134.505V132.795C93.0299 125.355 93.0749 120.87 93.1049 119.34C93.1949 118.11 93.3149 117.285 93.4649 116.865C93.6149 116.505 93.9299 116.22 94.4099 116.01L95.0399 115.785ZM67.4099 120.555L67.9049 120.105L68.4449 119.655L73.3499 119.52H73.5299L74.7899 119.475C75.4199 119.475 75.8399 119.46 76.0499 119.43C76.3199 119.43 76.9349 119.46 77.8949 119.52L79.2899 119.61C79.5599 119.67 79.8449 119.79 80.1449 119.97C80.5349 120.21 80.7449 120.375 80.7749 120.465L80.9999 121.275C81.1199 121.665 81.1799 122.04 81.1799 122.4C81.1499 122.7 81.1499 123.21 81.1799 123.93V124.02C81.1799 125.91 81.2399 126.96 81.3599 127.17C81.4499 127.32 81.6149 127.395 81.8549 127.395L82.5299 127.44C83.5199 127.44 84.3299 127.41 84.9599 127.35C85.6199 127.29 86.0249 127.23 86.1749 127.17C86.2649 127.11 86.3099 125.685 86.3099 122.895C86.3099 120.075 86.3699 118.47 86.4899 118.08C86.5799 117.78 86.7599 117.495 87.0299 117.225C87.3299 116.985 87.6299 116.82 87.9299 116.73L88.2899 116.64H88.3799C88.4999 116.64 88.7099 116.73 89.0099 116.91C89.3999 117.18 89.6099 117.405 89.6399 117.585C89.7299 117.795 89.8499 121.935 89.9999 130.005L90.0899 139.275C90.0899 141.315 90.0599 142.545 89.9999 142.965C89.9099 143.475 89.7749 143.85 89.5949 144.09C89.2649 144.42 88.9049 144.585 88.5149 144.585C88.1849 144.585 87.8849 144.525 87.6149 144.405C87.1649 144.195 86.8799 143.73 86.7599 143.01C86.6099 142.29 86.5199 140.25 86.4899 136.89C86.4599 132.96 86.3549 130.905 86.1749 130.725C86.0849 130.635 85.4399 130.545 84.2399 130.455C83.4599 130.395 82.9499 130.365 82.7099 130.365C82.3499 130.365 82.0199 130.395 81.7199 130.455C81.4199 130.485 81.2399 130.71 81.1799 131.13C81.1199 131.46 81.0599 132.6 80.9999 134.55C80.9999 136.14 80.9549 137.205 80.8649 137.745C80.7449 138.285 80.5049 138.705 80.1449 139.005C79.9949 139.155 79.6199 139.26 79.0199 139.32L77.3099 139.365L73.9799 139.32C70.9499 139.32 69.2549 139.305 68.8949 139.275C68.3249 139.215 67.9499 139.11 67.7699 138.96C67.6199 138.81 67.5149 138.315 67.4549 137.475C67.4249 136.965 67.4099 134.34 67.4099 129.6V120.555ZM70.5149 129.645C70.5749 133.815 70.6349 135.945 70.6949 136.035C70.8149 136.155 71.9099 136.23 73.9799 136.26C75.4799 136.29 76.3799 136.29 76.6799 136.26C77.0099 136.2 77.2199 136.11 77.3099 135.99C77.4299 135.78 77.5199 133.545 77.5799 129.285V126.54C77.5799 124.14 77.5349 122.895 77.4449 122.805C77.3249 122.685 76.6349 122.625 75.3749 122.625C73.4249 122.625 72.1199 122.655 71.4599 122.715C71.0699 122.745 70.7999 122.88 70.6499 123.12C70.5599 123.24 70.5149 124.5 70.5149 126.9V129.645ZM127.383 115.425C127.743 115.275 127.953 115.2 128.013 115.2H128.103C128.223 115.2 128.433 115.275 128.733 115.425C129.063 115.635 129.243 115.815 129.273 115.965C129.363 116.055 129.438 120.945 129.498 130.635L129.543 144.99L129.183 145.35C128.913 145.62 128.478 145.755 127.878 145.755C127.278 145.755 126.858 145.62 126.618 145.35C126.318 144.96 126.168 140.13 126.168 130.86V126.675L126.213 122.4C126.213 119.97 126.228 118.53 126.258 118.08C126.318 117.06 126.408 116.445 126.528 116.235C126.768 115.875 127.053 115.605 127.383 115.425ZM101.643 129.825C101.643 127.815 101.853 126.435 102.273 125.685C102.423 125.325 102.498 125.1 102.498 125.01C102.498 124.83 102.903 123.96 103.713 122.4C104.163 121.53 104.898 120.72 105.918 119.97C106.908 119.19 107.868 118.74 108.798 118.62C108.918 118.59 109.128 118.575 109.428 118.575C111.588 118.575 113.388 118.98 114.828 119.79C115.998 120.45 116.943 121.47 117.663 122.85C118.293 124.08 118.683 125.025 118.833 125.685C118.983 126.525 119.058 127.71 119.058 129.24C119.058 130.71 119.043 131.58 119.013 131.85C118.983 132.15 118.833 132.705 118.563 133.515C117.933 135.405 117.063 136.905 115.953 138.015C115.323 138.705 114.543 139.215 113.613 139.545C112.803 139.845 111.663 139.995 110.193 139.995C109.563 139.995 108.813 139.875 107.943 139.635C107.253 139.455 106.548 139.17 105.828 138.78C103.848 137.49 102.513 135.195 101.823 131.895C101.703 131.385 101.643 130.695 101.643 129.825ZM105.018 130.095C105.198 132.345 105.813 134.085 106.863 135.315C107.673 136.275 108.903 136.755 110.553 136.755C111.363 136.755 112.158 136.56 112.938 136.17C113.538 135.9 114.078 135.345 114.558 134.505C115.038 133.665 115.368 132.735 115.548 131.715C115.698 131.025 115.773 130.245 115.773 129.375C115.773 127.935 115.503 126.54 114.963 125.19C114.753 124.62 114.318 123.99 113.658 123.3C112.998 122.64 112.398 122.205 111.858 121.995C111.318 121.785 110.823 121.68 110.373 121.68C109.803 121.68 109.128 121.935 108.348 122.445C107.538 122.985 106.908 123.615 106.458 124.335C105.978 125.115 105.588 126.12 105.288 127.35C105.078 128.28 104.988 129.195 105.018 130.095ZM140.629 117.765C140.839 117.615 141.394 117.51 142.294 117.45C142.894 117.42 145.774 117.405 150.934 117.405H160.834L161.239 117.99C161.509 118.35 161.644 118.68 161.644 118.98C161.644 119.22 161.554 119.46 161.374 119.7C161.074 120.09 160.399 120.315 159.349 120.375C158.329 120.405 155.344 120.36 150.394 120.24C149.974 120.24 149.659 120.225 149.449 120.195L146.344 120.15C144.904 120.15 144.094 120.195 143.914 120.285L143.419 120.51V124.65H151.519C155.599 124.65 157.924 124.665 158.494 124.695C159.244 124.725 159.814 124.83 160.204 125.01C160.924 125.31 161.284 125.79 161.284 126.45C161.284 126.96 160.984 127.38 160.384 127.71C160.144 127.83 159.634 127.89 158.854 127.89C158.344 127.92 157.729 127.935 157.009 127.935C156.319 127.905 155.599 127.89 154.849 127.89C154.519 127.86 153.964 127.845 153.184 127.845C150.214 127.815 147.544 127.755 145.174 127.665L144.229 127.62C143.899 127.62 143.674 127.65 143.554 127.71C143.374 127.83 143.269 128.505 143.239 129.735L143.194 130.95C143.194 131.55 143.239 131.94 143.329 132.12L143.509 132.615L152.149 132.57C157.939 132.57 160.969 132.63 161.239 132.75C161.869 133.05 162.184 133.665 162.184 134.595C162.184 135.075 161.974 135.495 161.554 135.855C161.284 136.125 160.984 136.29 160.654 136.35L160.204 136.395C159.844 136.395 159.394 136.35 158.854 136.26C158.284 136.17 155.809 136.05 151.429 135.9C144.859 135.78 141.274 135.525 140.674 135.135C140.134 134.805 139.849 134.28 139.819 133.56C139.759 133.02 139.729 132.03 139.729 130.59L139.774 126.45C139.834 121.53 139.924 118.92 140.044 118.62C140.134 118.26 140.329 117.975 140.629 117.765ZM135.499 143.1C135.289 142.89 135.184 142.635 135.184 142.335C135.184 142.005 135.334 141.69 135.634 141.39C135.664 141.39 135.679 141.375 135.679 141.345C135.919 141.075 136.384 140.91 137.074 140.85C138.094 140.79 140.344 140.715 143.824 140.625H144.859C147.529 140.535 150.544 140.49 153.904 140.49H157.459C161.239 140.49 163.354 140.505 163.804 140.535C164.464 140.565 164.899 140.67 165.109 140.85C165.409 141.06 165.589 141.45 165.649 142.02V142.245C165.649 142.665 165.544 142.98 165.334 143.19C165.154 143.34 164.419 143.43 163.129 143.46C162.259 143.49 158.014 143.505 150.394 143.505H135.814L135.499 143.1Z" fill="#979797"/>
<defs>
<clipPath id="clip0_1142_613">
<rect width="100" height="100" fill="white" transform="translate(33.5)"/>
</clipPath>
</defs>
</svg>
