<svg width="105" height="153" viewBox="0 0 105 153" fill="none" xmlns="http://www.w3.org/2000/svg">
<path d="M14 95C11.525 95 9.407 94.1195 7.646 92.3585C5.885 90.5975 5.003 88.478 5 86V32C5 29.525 5.882 27.407 7.646 25.646C9.41 23.885 11.528 23.003 14 23H32L50 5L68 23H86C88.475 23 90.5945 23.882 92.3585 25.646C94.1225 27.41 95.003 29.528 95 32V86C95 88.475 94.1195 90.5945 92.3585 92.3585C90.5975 94.1225 88.478 95.003 86 95H14ZM14 86H86V32H14V86ZM23 77H77L60.125 54.5L46.625 72.5L36.5 59L23 77ZM74.75 54.5C76.625 54.5 78.2195 53.8445 79.5335 52.5335C80.8475 51.2225 81.503 49.628 81.5 47.75C81.5 45.875 80.8445 44.282 79.5335 42.971C78.2225 41.66 76.628 41.003 74.75 41C72.875 41 71.282 41.657 69.971 42.971C68.66 44.285 68.003 45.878 68 47.75C68 49.625 68.657 51.2195 69.971 52.5335C71.285 53.8475 72.878 54.503 74.75 54.5ZM41.45 23H58.55L50 14.45L41.45 23Z" fill="#979797"/>
<path d="M28.0743 115.47C28.3143 115.26 28.7043 115.155 29.2443 115.155C29.6943 115.155 30.0393 115.275 30.2793 115.515C30.4293 115.695 30.5193 116.28 30.5493 117.27C30.5793 117.72 30.5943 119.22 30.5943 121.77L30.6393 126.225C30.6693 127.875 30.6843 129.855 30.6843 132.165C30.6843 133.815 30.6693 134.82 30.6393 135.18C30.5793 136.26 30.4893 136.905 30.3693 137.115C30.2193 137.385 30.0843 137.535 29.9643 137.565C29.7843 137.625 29.5593 137.655 29.2893 137.655C28.3593 137.655 27.7743 137.31 27.5343 136.62C27.4143 136.35 27.3093 134.64 27.2193 131.49C27.1893 128.46 27.1143 126.84 26.9943 126.63C26.9043 126.42 25.9893 126.3 24.2493 126.27C22.5093 126.18 21.3693 126.015 20.8293 125.775C20.3493 125.565 20.1543 125.1 20.2443 124.38C20.3043 124.05 20.4993 123.78 20.8293 123.57C21.0393 123.39 21.3393 123.27 21.7293 123.21C21.9393 123.18 22.7343 123.165 24.1143 123.165C25.8843 123.165 26.8443 123.09 26.9943 122.94C27.0843 122.79 27.1743 121.98 27.2643 120.51C27.4143 118.41 27.5193 117.135 27.5793 116.685C27.6693 116.055 27.8343 115.65 28.0743 115.47ZM3.14432 118.575C3.11432 118.485 3.09932 118.35 3.09932 118.17C3.09932 117.72 3.26432 117.375 3.59432 117.135C4.01432 116.835 4.82432 116.67 6.02432 116.64C7.52432 116.58 10.0743 116.55 13.6743 116.55L19.5693 116.505L20.0193 117C20.3493 117.33 20.5143 117.645 20.5143 117.945C20.5143 118.215 20.4243 118.485 20.2443 118.755C20.0643 119.055 19.7343 119.25 19.2543 119.34C18.8043 119.46 17.9343 119.52 16.6443 119.52C15.0243 119.55 14.0793 119.595 13.8093 119.655C13.5093 119.685 13.3143 119.865 13.2243 120.195C13.1043 120.465 12.9993 121.155 12.9093 122.265C12.8793 123.015 12.8793 123.48 12.9093 123.66C12.9393 123.87 13.0743 124.155 13.3143 124.515C13.7043 125.115 14.4843 125.955 15.6543 127.035C16.5843 127.935 17.7243 128.895 19.0743 129.915C20.0043 130.635 20.4693 131.265 20.4693 131.805C20.4693 132.225 20.2143 132.585 19.7043 132.885C19.4043 133.035 19.1343 133.11 18.8943 133.11C18.7143 133.11 18.5343 133.065 18.3543 132.975C17.9043 132.795 17.0043 132.165 15.6543 131.085C13.9143 129.675 12.6543 128.595 11.8743 127.845C11.7543 127.725 11.5893 127.665 11.3793 127.665C11.1993 127.665 10.7043 128.1 9.89432 128.97C9.14432 129.75 8.36432 130.695 7.55432 131.805C6.95432 132.585 6.48932 133.08 6.15932 133.29C5.76932 133.53 5.36432 133.65 4.94432 133.65C4.52432 133.65 4.13432 133.455 3.77432 133.065C3.38432 132.705 3.18932 132.405 3.18932 132.165C3.18932 131.535 3.93932 130.425 5.43932 128.835C7.47932 126.705 8.73932 125.25 9.21932 124.47C9.42932 124.17 9.62432 123.33 9.80432 121.95C9.92432 120.87 9.98432 120.3 9.98432 120.24C9.98432 120.03 9.95432 119.895 9.89432 119.835C9.68432 119.715 8.99432 119.64 7.82432 119.61C6.62432 119.55 5.81432 119.55 5.39432 119.61H5.16932C4.77932 119.61 4.37432 119.52 3.95432 119.34C3.44432 119.1 3.17432 118.845 3.14432 118.575ZM7.77932 142.02C7.77932 139.41 7.86932 137.625 8.04932 136.665C8.19932 136.005 8.48432 135.66 8.90432 135.63C9.02432 135.6 9.17432 135.585 9.35432 135.585C10.0743 135.585 10.5843 135.915 10.8843 136.575C10.9743 136.725 11.0493 137.715 11.1093 139.545C11.1093 141.345 11.1543 142.32 11.2443 142.47C11.3643 142.59 13.4643 142.65 17.5443 142.65H20.4693L29.5593 142.56L29.9643 143.055C30.2043 143.355 30.3243 143.715 30.3243 144.135C30.3243 144.615 30.1743 145.005 29.8743 145.305C29.5743 145.515 29.1243 145.635 28.5243 145.665C28.0443 145.725 26.1243 145.755 22.7643 145.755H18.3093H17.1843C12.6843 145.695 10.1193 145.635 9.48932 145.575C8.73932 145.485 8.24432 145.185 8.00432 144.675C8.00432 144.615 7.98932 144.57 7.95932 144.54C7.83932 144.12 7.77932 143.28 7.77932 142.02ZM62.3886 115.2C62.7486 115.2 63.0636 115.26 63.3336 115.38C63.6936 115.59 63.9336 115.875 64.0536 116.235C64.1736 116.505 64.2786 121.05 64.3686 129.87L64.4136 137.88C64.4136 141.54 64.3686 143.595 64.2786 144.045C64.2486 144.555 64.0686 144.96 63.7386 145.26C63.5286 145.53 63.3636 145.68 63.2436 145.71C63.1536 145.74 62.8386 145.755 62.2986 145.755C61.7286 145.725 61.3986 145.665 61.3086 145.575C60.9786 145.245 60.8136 143.355 60.8136 139.905V130.905L60.8586 116.73C60.8586 116.43 61.0086 116.115 61.3086 115.785C61.6086 115.425 61.8636 115.23 62.0736 115.2H62.3886ZM35.8386 138.195C35.8386 137.685 35.8986 137.295 36.0186 137.025C36.1986 136.665 36.4536 136.305 36.7836 135.945L37.8636 134.685L38.6286 133.785L39.3486 132.975C40.5486 131.535 41.6736 129.99 42.7236 128.34C43.2936 127.41 43.6836 126.42 43.8936 125.37C44.0736 124.5 44.1936 123 44.2536 120.87L44.3436 117.855L44.9736 117.315C45.3936 116.955 45.7086 116.775 45.9186 116.775C46.1886 116.775 46.4736 116.88 46.7736 117.09C47.0736 117.3 47.2686 117.51 47.3586 117.72C47.4786 117.96 47.5386 118.8 47.5386 120.24V121.725C47.4486 124.095 47.2986 125.595 47.0886 126.225C47.0286 126.465 47.4036 126.99 48.2136 127.8L50.1936 129.87L50.7786 130.455C50.9286 130.665 51.2436 131.01 51.7236 131.49L52.6236 132.525C54.3636 134.355 55.4436 135.72 55.8636 136.62C56.0436 136.98 56.1336 137.295 56.1336 137.565C56.1336 137.985 55.9536 138.33 55.5936 138.6C55.2936 138.84 54.9486 138.96 54.5586 138.96C54.3186 138.96 54.0786 138.885 53.8386 138.735C53.7186 138.645 53.3286 138.255 52.6686 137.565C48.2286 132.795 45.9186 130.38 45.7386 130.32H45.6486C45.4986 130.32 45.3486 130.395 45.1986 130.545C44.9886 130.755 44.6286 131.25 44.1186 132.03L43.7136 132.615L43.0386 133.56L42.4536 134.37C40.5936 136.95 39.4236 138.51 38.9436 139.05C38.4036 139.65 37.8936 139.95 37.4136 139.95C36.9936 139.95 36.6186 139.815 36.2886 139.545C36.1086 139.425 35.9886 139.26 35.9286 139.05C35.8686 138.87 35.8386 138.585 35.8386 138.195ZM95.4636 115.245C95.7636 115.185 95.9886 115.155 96.1386 115.155C96.8886 115.155 97.4136 115.47 97.7136 116.1C97.8036 116.31 97.8786 117.225 97.9386 118.845C97.9686 119.505 97.9836 121.5 97.9836 124.83L98.0286 130.815L98.0736 144.9L97.7586 145.35C97.5786 145.59 97.4286 145.725 97.3086 145.755C97.2186 145.785 96.9336 145.8 96.4536 145.8C95.8836 145.8 95.5236 145.755 95.3736 145.665C95.1936 145.575 94.9986 145.335 94.7886 144.945C94.6986 144.735 94.6236 143.88 94.5636 142.38C94.5336 141.45 94.5186 137.385 94.5186 130.185L94.4736 122.085L94.5186 117.99C94.5486 116.61 94.6386 115.83 94.7886 115.65C95.0286 115.41 95.2536 115.275 95.4636 115.245ZM69.9036 121.635C70.1136 121.425 70.3086 121.305 70.4886 121.275C70.9686 121.185 71.4036 121.125 71.7936 121.095C72.3036 121.065 74.1486 121.05 77.3286 121.05H81.5586L89.7486 121.095L90.2436 121.545C90.6036 121.845 90.7536 122.175 90.6936 122.535C90.6036 122.865 90.4986 123.09 90.3786 123.21C90.1986 123.39 89.9586 123.555 89.6586 123.705C89.2986 123.885 87.7536 123.975 85.0236 123.975C82.2936 123.975 80.9286 124.035 80.9286 124.155C80.9286 124.245 81.1836 124.38 81.6936 124.56C82.2936 124.77 82.6086 124.905 82.6386 124.965C82.7886 125.055 83.0286 125.13 83.3586 125.19C83.7486 125.28 84.3486 125.565 85.1586 126.045C85.7286 126.405 86.2536 126.84 86.7336 127.35C87.1536 127.8 87.5136 128.43 87.8136 129.24C88.0536 129.78 88.1736 130.35 88.1736 130.95C88.1736 131.43 88.0686 132.06 87.8586 132.84C87.4686 134.22 86.7786 135.375 85.7886 136.305C84.9486 137.055 83.9586 137.58 82.8186 137.88C82.3086 138 81.9936 138.12 81.8736 138.24C81.8136 138.3 81.7536 138.69 81.6936 139.41V139.905C81.6936 140.295 81.7236 140.52 81.7836 140.58C81.8436 140.64 82.6236 140.67 84.1236 140.67H86.0586C88.7286 140.64 90.2886 140.7 90.7386 140.85C91.3086 141.15 91.5936 141.57 91.5936 142.11C91.5936 142.77 91.1886 143.265 90.3786 143.595C90.1086 143.715 86.8236 143.775 80.5236 143.775C75.8436 143.775 73.1586 143.76 72.4686 143.73C71.4486 143.73 70.8186 143.655 70.5786 143.505C70.0686 143.175 69.8136 142.83 69.8136 142.47C69.8136 142.26 69.8736 142.05 69.9936 141.84C70.1136 141.57 70.2636 141.345 70.4436 141.165C70.5636 141.135 71.8836 141.045 74.4036 140.895L78.1386 140.715L78.2736 139.635C78.3336 138.945 78.3336 138.51 78.2736 138.33C78.2136 138.18 77.8986 137.97 77.3286 137.7C76.8186 137.49 76.1286 137.085 75.2586 136.485C74.2986 135.825 73.7136 135.39 73.5036 135.18C72.9936 134.61 72.6186 133.8 72.3786 132.75C72.3186 132.48 72.2886 132.09 72.2886 131.58C72.2886 130.56 72.5586 129.54 73.0986 128.52C73.6686 127.44 74.4036 126.6 75.3036 126C76.1736 125.4 77.5386 124.755 79.3986 124.065L77.8236 123.975H77.7336L73.1886 123.84C71.9886 123.78 71.2236 123.735 70.8936 123.705C70.5636 123.645 70.2786 123.525 70.0386 123.345C69.7086 123.075 69.5436 122.79 69.5436 122.49C69.5436 122.22 69.6636 121.935 69.9036 121.635ZM73.7736 116.1C73.8336 116.04 75.2736 115.995 78.0936 115.965L83.1786 115.83H83.4486C83.8086 115.83 84.1686 115.905 84.5286 116.055C84.8886 116.265 85.1436 116.535 85.2936 116.865C85.3536 116.955 85.3836 117.135 85.3836 117.405C85.3836 117.645 85.3536 117.84 85.2936 117.99C85.1436 118.41 84.9486 118.695 84.7086 118.845C84.3486 119.025 83.3886 119.115 81.8286 119.115C80.6886 119.115 79.2336 119.07 77.4636 118.98C76.5636 118.95 75.7086 118.89 74.8986 118.8C74.5686 118.77 74.2536 118.665 73.9536 118.485C73.5036 118.155 73.2786 117.795 73.2786 117.405C73.2786 117.195 73.3536 116.94 73.5036 116.64L73.7736 116.1ZM75.5736 131.085C75.5136 131.445 75.4836 131.685 75.4836 131.805C75.4836 132.255 75.5886 132.63 75.7986 132.93C76.0686 133.38 76.6536 133.83 77.5536 134.28C78.1836 134.55 78.9636 134.685 79.8936 134.685C80.8236 134.685 81.6636 134.52 82.4136 134.19C83.3436 133.74 84.0036 133.185 84.3936 132.525C84.6036 132.135 84.7086 131.715 84.7086 131.265C84.7086 130.935 84.6636 130.62 84.5736 130.32C84.2736 129.21 83.1186 128.355 81.1086 127.755C80.6886 127.605 80.2236 127.53 79.7136 127.53C78.7236 127.53 77.8386 127.86 77.0586 128.52C76.3086 129.15 75.8136 130.005 75.5736 131.085Z" fill="#979797"/>
</svg>
