<svg width="100" height="153" viewBox="0 0 100 153" fill="none" xmlns="http://www.w3.org/2000/svg">
<path d="M70.8333 58.3333C71.9384 58.3333 72.9982 57.8943 73.7796 57.1129C74.561 56.3315 75 55.2717 75 54.1667C75 53.0616 74.561 52.0018 73.7796 51.2204C72.9982 50.439 71.9384 50 70.8333 50C69.7283 50 68.6685 50.439 67.8871 51.2204C67.1056 52.0018 66.6667 53.0616 66.6667 54.1667C66.6667 55.2717 67.1056 56.3315 67.8871 57.1129C68.6685 57.8943 69.7283 58.3333 70.8333 58.3333ZM70.8333 75C71.9384 75 72.9982 74.561 73.7796 73.7796C74.561 72.9982 75 71.9384 75 70.8333C75 69.7283 74.561 68.6685 73.7796 67.8871C72.9982 67.1056 71.9384 66.6667 70.8333 66.6667C69.7283 66.6667 68.6685 67.1056 67.8871 67.8871C67.1056 68.6685 66.6667 69.7283 66.6667 70.8333C66.6667 71.9384 67.1056 72.9982 67.8871 73.7796C68.6685 74.561 69.7283 75 70.8333 75ZM54.1667 54.1667C54.1667 55.2717 53.7277 56.3315 52.9463 57.1129C52.1649 57.8943 51.1051 58.3333 50 58.3333C48.8949 58.3333 47.8351 57.8943 47.0537 57.1129C46.2723 56.3315 45.8333 55.2717 45.8333 54.1667C45.8333 53.0616 46.2723 52.0018 47.0537 51.2204C47.8351 50.439 48.8949 50 50 50C51.1051 50 52.1649 50.439 52.9463 51.2204C53.7277 52.0018 54.1667 53.0616 54.1667 54.1667ZM54.1667 70.8333C54.1667 71.9384 53.7277 72.9982 52.9463 73.7796C52.1649 74.561 51.1051 75 50 75C48.8949 75 47.8351 74.561 47.0537 73.7796C46.2723 72.9982 45.8333 71.9384 45.8333 70.8333C45.8333 69.7283 46.2723 68.6685 47.0537 67.8871C47.8351 67.1056 48.8949 66.6667 50 66.6667C51.1051 66.6667 52.1649 67.1056 52.9463 67.8871C53.7277 68.6685 54.1667 69.7283 54.1667 70.8333ZM29.1667 58.3333C30.2717 58.3333 31.3315 57.8943 32.1129 57.1129C32.8943 56.3315 33.3333 55.2717 33.3333 54.1667C33.3333 53.0616 32.8943 52.0018 32.1129 51.2204C31.3315 50.439 30.2717 50 29.1667 50C28.0616 50 27.0018 50.439 26.2204 51.2204C25.439 52.0018 25 53.0616 25 54.1667C25 55.2717 25.439 56.3315 26.2204 57.1129C27.0018 57.8943 28.0616 58.3333 29.1667 58.3333ZM29.1667 75C30.2717 75 31.3315 74.561 32.1129 73.7796C32.8943 72.9982 33.3333 71.9384 33.3333 70.8333C33.3333 69.7283 32.8943 68.6685 32.1129 67.8871C31.3315 67.1056 30.2717 66.6667 29.1667 66.6667C28.0616 66.6667 27.0018 67.1056 26.2204 67.8871C25.439 68.6685 25 69.7283 25 70.8333C25 71.9384 25.439 72.9982 26.2204 73.7796C27.0018 74.561 28.0616 75 29.1667 75Z" fill="#979797"/>
<path fill-rule="evenodd" clip-rule="evenodd" d="M29.1671 7.29167C29.9959 7.29167 30.7907 7.62091 31.3768 8.20696C31.9628 8.79301 32.2921 9.58787 32.2921 10.4167V13.5958C35.0504 13.5417 38.0879 13.5417 41.4296 13.5417H58.5671C61.9129 13.5417 64.9504 13.5417 67.7087 13.5958V10.4167C67.7087 9.58787 68.038 8.79301 68.624 8.20696C69.2101 7.62091 70.0049 7.29167 70.8337 7.29167C71.6625 7.29167 72.4574 7.62091 73.0434 8.20696C73.6295 8.79301 73.9587 9.58787 73.9587 10.4167V13.8625C75.0421 13.9458 76.0671 14.05 77.0379 14.1792C81.9212 14.8375 85.8754 16.2208 88.9962 19.3375C92.1129 22.4583 93.4962 26.4125 94.1546 31.2958C94.7921 36.0458 94.7921 42.1083 94.7921 49.7667V58.5667C94.7921 66.225 94.7921 72.2917 94.1546 77.0375C93.4962 81.9208 92.1129 85.875 88.9962 88.9958C85.8754 92.1125 81.9212 93.4958 77.0379 94.1542C72.2879 94.7917 66.2254 94.7917 58.5671 94.7917H41.4379C33.7796 94.7917 27.7129 94.7917 22.9671 94.1542C18.0837 93.4958 14.1296 92.1125 11.0087 88.9958C7.89206 85.875 6.50872 81.9208 5.85039 77.0375C5.21289 72.2875 5.21289 66.225 5.21289 58.5667V49.7667C5.21289 42.1083 5.21289 36.0417 5.85039 31.2958C6.50872 26.4125 7.89206 22.4583 11.0087 19.3375C14.1296 16.2208 18.0837 14.8375 22.9671 14.1792C23.9379 14.05 24.9671 13.9458 26.0462 13.8625V10.4167C26.0462 9.58859 26.3749 8.79437 26.96 8.20843C27.5452 7.6225 28.339 7.29278 29.1671 7.29167ZM23.7921 20.375C19.6046 20.9375 17.1879 21.9958 15.4254 23.7583C13.6629 25.5208 12.6046 27.9375 12.0421 32.1292C11.9462 32.8375 11.8671 33.5875 11.8004 34.375H88.2004C88.1337 33.5833 88.0546 32.8375 87.9587 32.125C87.3962 27.9375 86.3379 25.5208 84.5754 23.7583C82.8129 21.9958 80.3962 20.9375 76.2046 20.375C71.9254 19.8 66.2796 19.7917 58.3337 19.7917H41.6671C33.7212 19.7917 28.0796 19.8 23.7921 20.375ZM11.4587 50C11.4587 46.4417 11.4587 43.3458 11.5129 40.625H88.4879C88.5421 43.3458 88.5421 46.4417 88.5421 50V58.3333C88.5421 66.2792 88.5337 71.925 87.9587 76.2083C87.3962 80.3958 86.3379 82.8125 84.5754 84.575C82.8129 86.3375 80.3962 87.3958 76.2046 87.9583C71.9254 88.5333 66.2796 88.5417 58.3337 88.5417H41.6671C33.7212 88.5417 28.0796 88.5333 23.7921 87.9583C19.6046 87.3958 17.1879 86.3375 15.4254 84.575C13.6629 82.8125 12.6046 80.3958 12.0421 76.2042C11.4671 71.925 11.4587 66.2792 11.4587 58.3333V50Z" fill="#979797"/>
<path d="M19.7892 114.435C20.0592 114.285 20.3442 114.21 20.6442 114.21C20.9742 114.21 21.2592 114.315 21.4992 114.525C21.7092 114.645 21.8442 114.855 21.9042 115.155C21.9342 115.305 21.9492 115.755 21.9492 116.505L21.9942 117.81C22.0542 119.79 22.1292 120.825 22.2192 120.915C22.3092 121.005 22.7142 121.05 23.4342 121.05C25.0842 121.05 26.0892 120.945 26.4492 120.735C26.6292 120.615 26.7342 120.435 26.7642 120.195C26.7942 119.985 26.8392 119.385 26.8992 118.395C26.9892 116.985 27.0792 116.04 27.1692 115.56C27.3192 114.84 27.6792 114.39 28.2492 114.21C28.4292 114.15 28.5792 114.12 28.6992 114.12C29.0892 114.12 29.4792 114.315 29.8692 114.705L30.3642 115.245L30.2742 117.405C30.1542 119.265 30.0792 121.71 30.0492 124.74C30.0192 127.02 29.9742 128.475 29.9142 129.105C29.8842 129.705 29.7942 130.125 29.6442 130.365C29.4642 130.635 29.1942 130.845 28.8342 130.995C28.6542 131.055 28.5042 131.085 28.3842 131.085C28.2942 131.085 28.1292 131.055 27.8892 130.995C27.4692 130.815 27.1992 130.53 27.0792 130.14C26.9892 129.84 26.9142 128.88 26.8542 127.26L26.8092 126.09C26.8092 125.46 26.7942 125.07 26.7642 124.92C26.7342 124.56 26.6442 124.335 26.4942 124.245C26.2842 124.095 25.6092 124.05 24.4692 124.11C24.3792 124.14 24.2142 124.155 23.9742 124.155C22.9842 124.215 22.4292 124.335 22.3092 124.515C22.1592 124.725 22.0542 125.415 21.9942 126.585V127.215C21.9342 128.805 21.8592 129.735 21.7692 130.005C21.6492 130.395 21.3342 130.635 20.8242 130.725C20.7642 130.755 20.6592 130.77 20.5092 130.77C20.2992 130.77 20.0442 130.695 19.7442 130.545C19.2942 130.305 19.0092 130.065 18.8892 129.825C18.7692 129.615 18.7092 128.46 18.7092 126.36C18.7092 124.83 18.7242 123.57 18.7542 122.58C18.7842 118.14 18.9192 115.65 19.1592 115.11C19.2492 114.84 19.4592 114.615 19.7892 114.435ZM0.75418 122.895C0.75418 122.295 1.03918 121.86 1.60918 121.59C1.99918 121.41 2.40418 121.305 2.82418 121.275C3.03418 121.245 3.61918 121.23 4.57918 121.23L6.33418 121.185L10.3842 121.14L10.7892 120.51C11.0292 120.06 11.1942 119.655 11.2842 119.295V119.025C11.2842 118.755 11.2392 118.605 11.1492 118.575C11.0292 118.455 9.42418 118.395 6.33418 118.395H1.69918L1.29418 117.99C0.99418 117.72 0.84418 117.435 0.84418 117.135C0.84418 116.805 0.99418 116.475 1.29418 116.145C1.56418 115.815 1.84918 115.635 2.14918 115.605C2.29918 115.575 3.28918 115.56 5.11918 115.56L8.08918 115.515H9.84418C12.3342 115.515 13.7592 115.59 14.1192 115.74C14.9292 116.13 15.3342 116.775 15.3342 117.675C15.3342 118.275 15.1842 118.98 14.8842 119.79C14.3142 121.38 13.4442 123.03 12.2742 124.74C11.0442 126.57 9.79918 128.07 8.53918 129.24C6.94918 130.74 5.83918 131.715 5.20918 132.165C4.54918 132.585 3.96418 132.795 3.45418 132.795C2.85418 132.795 2.38918 132.63 2.05918 132.3C1.69918 131.97 1.51918 131.61 1.51918 131.22C1.51918 131.01 1.68418 130.695 2.01418 130.275C2.34418 129.855 2.68918 129.525 3.04918 129.285C4.15918 128.535 5.34418 127.56 6.60418 126.36C7.71418 125.25 8.20918 124.56 8.08918 124.29C8.02918 124.23 7.68418 124.2 7.05418 124.2L5.11918 124.245L3.18418 124.29C2.49418 124.29 2.02918 124.26 1.78918 124.2C1.45918 124.11 1.18918 123.915 0.97918 123.615C0.82918 123.375 0.75418 123.135 0.75418 122.895ZM7.68418 142.155C7.68418 140.415 7.72918 139.32 7.81918 138.87C7.90918 138.45 8.16418 138.075 8.58418 137.745C8.82418 137.595 9.12418 137.505 9.48418 137.475C9.72418 137.445 10.6692 137.43 12.3192 137.43C14.5692 137.43 17.0592 137.475 19.7892 137.565H19.9692C20.6892 137.595 21.5742 137.61 22.6242 137.61C23.5542 137.61 24.0942 137.58 24.2442 137.52C24.6642 137.43 24.8742 137.04 24.8742 136.35V135.225L23.2542 135.09L18.3492 134.955L11.8242 134.865C10.7742 134.835 9.85918 134.775 9.07918 134.685C8.62918 134.625 8.34418 134.535 8.22418 134.415C7.98418 134.235 7.86418 133.965 7.86418 133.605C7.86418 133.125 7.99918 132.75 8.26918 132.48C8.50918 132.27 8.73418 132.15 8.94418 132.12C9.15418 132.09 9.66418 132.045 10.4742 131.985C12.1542 131.925 14.1792 131.895 16.5492 131.895H19.8792C24.3792 131.925 26.7642 132 27.0342 132.12C27.4842 132.33 27.8292 132.735 28.0692 133.335C28.2192 133.905 28.3242 134.895 28.3842 136.305C28.3842 137.595 28.2942 138.465 28.1142 138.915C27.9342 139.425 27.5592 139.83 26.9892 140.13C26.5092 140.43 25.5642 140.595 24.1542 140.625C22.7742 140.685 21.1692 140.715 19.3392 140.715H16.7742L13.6242 140.67C12.1842 140.67 11.3892 140.715 11.2392 140.805C11.0892 140.895 10.9842 141.015 10.9242 141.165C10.8642 141.345 10.8342 141.675 10.8342 142.155C10.8342 142.965 10.8942 143.385 11.0142 143.415C11.1942 143.475 13.9692 143.505 19.3392 143.505C24.8292 143.505 27.6792 143.55 27.8892 143.64C28.3992 143.82 28.6542 144.255 28.6542 144.945C28.6542 145.575 28.3992 146.055 27.8892 146.385C27.5592 146.565 27.0042 146.67 26.2242 146.7C25.8642 146.73 24.6492 146.745 22.5792 146.745L18.8892 146.79H14.6592C11.5692 146.79 9.84418 146.775 9.48418 146.745C9.15418 146.715 8.85418 146.655 8.58418 146.565C8.43418 146.445 8.26918 146.265 8.08918 146.025C7.93918 145.755 7.83418 145.44 7.77418 145.08C7.71418 144.6 7.68418 143.625 7.68418 142.155ZM60.3978 114.885C60.4878 114.885 60.6528 114.915 60.8928 114.975C61.1328 115.035 61.3428 115.155 61.5228 115.335L61.5678 115.425C61.7178 115.545 61.8078 116.04 61.8378 116.91L61.7928 126.045V128.115L61.7478 136.17L61.2528 136.665C61.0428 136.875 60.8628 137.01 60.7128 137.07C60.5328 137.13 60.3378 137.145 60.1278 137.115C59.1978 136.935 58.6278 136.335 58.4178 135.315C58.3578 134.955 58.3278 133.995 58.3278 132.435L58.4178 125.325C58.5678 119.295 58.7178 116.04 58.8678 115.56C59.0178 115.26 59.2428 115.095 59.5428 115.065L59.9028 114.975L60.1278 114.93L60.3978 114.885ZM35.5578 128.43C35.5578 126.18 35.6178 124.83 35.7378 124.38C35.8278 123.93 36.1578 123.6 36.7278 123.39C36.9978 123.27 38.1078 123.21 40.0578 123.21H42.0828L45.0078 123.255L46.6728 123.21C47.3328 123.18 47.7078 123.03 47.7978 122.76C47.8578 122.49 47.9328 121.92 48.0228 121.05V120.42C48.0228 119.82 47.9778 119.505 47.8878 119.475C47.8278 119.415 47.2278 119.385 46.0878 119.385C44.6178 119.385 43.3428 119.4 42.2628 119.43L36.8178 119.52L36.2778 119.025C35.9478 118.695 35.7828 118.35 35.7828 117.99C35.7828 117.78 35.8278 117.585 35.9178 117.405C36.0978 117.045 36.5178 116.805 37.1778 116.685C37.9278 116.565 39.5628 116.49 42.0828 116.46C42.9828 116.46 43.6428 116.445 44.0628 116.415C44.9628 116.415 45.8478 116.415 46.7178 116.415C47.6178 116.385 48.3828 116.385 49.0128 116.415C49.9728 116.445 50.6028 116.58 50.9028 116.82C51.2028 117 51.4428 117.24 51.6228 117.54C51.7128 117.81 51.7578 118.23 51.7578 118.8C51.7578 119.52 51.6978 120.465 51.5778 121.635C51.4278 123.105 51.3078 123.975 51.2178 124.245C51.0378 124.995 50.4978 125.475 49.5978 125.685C49.2978 125.775 47.5428 125.865 44.3328 125.955L43.5228 126C41.2428 126.03 39.8478 126.135 39.3378 126.315C38.9478 126.495 38.7528 127.08 38.7528 128.07V128.43C38.7528 129.27 38.7678 129.765 38.7978 129.915C38.8578 130.185 38.9628 130.38 39.1128 130.5C39.2328 130.62 39.3978 130.71 39.6078 130.77C39.7578 130.8 40.0728 130.8 40.5528 130.77C41.4528 130.65 43.2828 130.575 46.0428 130.545C46.8228 130.515 47.7528 130.5 48.8328 130.5C49.6728 130.5 50.1828 130.515 50.3628 130.545C50.9928 130.605 51.5028 130.83 51.8928 131.22C52.2228 131.55 52.3428 131.91 52.2528 132.3C52.1028 132.78 51.8178 133.125 51.3978 133.335C51.1878 133.455 48.8928 133.53 44.5128 133.56C43.0428 133.59 41.3028 133.605 39.2928 133.605C37.9428 133.605 37.1628 133.59 36.9528 133.56C36.5028 133.53 36.1578 133.335 35.9178 132.975C35.7678 132.765 35.6628 132.435 35.6028 131.985C35.5728 131.715 35.5578 130.53 35.5578 128.43ZM39.6978 139.86C39.6978 138.84 39.7428 138.105 39.8328 137.655C39.9228 137.055 40.1328 136.635 40.4628 136.395C40.6428 136.245 40.8978 136.17 41.2278 136.17C41.5278 136.17 41.8128 136.245 42.0828 136.395C42.5028 136.605 42.7728 136.92 42.8928 137.34C42.9828 137.73 43.0278 138.63 43.0278 140.04C43.0278 141.63 43.1028 142.53 43.2528 142.74C43.4028 142.89 46.3878 142.965 52.2078 142.965C58.0278 142.965 61.0428 143.025 61.2528 143.145C61.4328 143.235 61.6128 143.445 61.7928 143.775C61.9728 144.135 62.0628 144.435 62.0628 144.675C62.0628 144.915 61.9128 145.2 61.6128 145.53L61.1178 146.07L51.4428 146.025C44.9928 145.965 41.5878 145.89 41.2278 145.8C40.5378 145.56 40.1328 145.185 40.0128 144.675C39.8028 144.075 39.6978 142.47 39.6978 139.86ZM93.0274 115.65C93.3574 115.35 93.7024 115.2 94.0624 115.2C94.3924 115.2 94.7224 115.32 95.0524 115.56L95.4574 115.875V129.105C95.4574 137.805 95.4124 142.635 95.3224 143.595C95.2324 144.405 95.0674 144.975 94.8274 145.305C94.6174 145.575 94.1974 145.71 93.5674 145.71C93.2074 145.71 92.9374 145.68 92.7574 145.62C92.6674 145.59 92.4874 145.44 92.2174 145.17L91.7674 144.63L91.8574 138.33C91.8874 137.07 91.9024 135.585 91.9024 133.875C91.9024 132.525 91.8724 131.82 91.8124 131.76C91.7824 131.64 91.4974 131.55 90.9574 131.49C90.7174 131.46 89.9824 131.445 88.7524 131.445L86.5474 131.4C84.4174 131.4 82.9624 131.37 82.1824 131.31C81.6124 131.25 81.2074 131.16 80.9674 131.04C80.6974 130.86 80.5474 130.53 80.5174 130.05V129.825C80.5174 129.435 80.6074 129.15 80.7874 128.97C81.2074 128.58 83.5324 128.385 87.7624 128.385C90.1624 128.385 91.4674 128.31 91.6774 128.16C91.8274 128.07 91.9174 127.695 91.9474 127.035C91.9774 126.765 91.9924 126.045 91.9924 124.875L92.0374 122.715C92.1274 119.205 92.2174 117.225 92.3074 116.775C92.3974 116.325 92.6374 115.95 93.0274 115.65ZM67.9174 130.095C67.9174 125.475 67.9324 122.88 67.9624 122.31C68.0224 121.44 68.1124 120.9 68.2324 120.69C68.4724 120.36 68.9074 120.12 69.5374 119.97C70.1374 119.82 71.3974 119.73 73.3174 119.7L79.9324 119.565H82.9474L83.4424 119.97C83.8324 120.27 84.0274 120.6 84.0274 120.96C84.0274 121.65 83.6374 122.175 82.8574 122.535C82.6474 122.655 80.9524 122.715 77.7724 122.715C73.6324 122.715 71.4424 122.835 71.2024 123.075C71.1724 123.105 71.1574 124.26 71.1574 126.54V129.87C71.1574 134.28 71.1874 136.605 71.2474 136.845C71.2774 136.905 71.5924 136.965 72.1924 137.025C72.5824 137.055 73.0324 137.07 73.5424 137.07C74.0824 137.04 74.6224 137.025 75.1624 137.025C75.4324 136.995 75.8674 136.98 76.4674 136.98C79.4674 136.95 81.5824 136.875 82.8124 136.755C83.4124 136.695 83.8024 136.695 83.9824 136.755C84.1624 136.815 84.3424 136.935 84.5224 137.115C84.8224 137.415 84.9724 137.715 84.9724 138.015C84.9724 138.465 84.7474 138.87 84.2974 139.23C83.9974 139.5 83.6674 139.65 83.3074 139.68C82.1074 139.8 80.9674 139.905 79.8874 139.995C78.3574 140.085 76.7674 140.13 75.1174 140.13H73.4074C71.1574 140.13 69.7324 140.055 69.1324 139.905C69.1024 139.875 69.0424 139.86 68.9524 139.86C68.4724 139.74 68.1874 139.335 68.0974 138.645C68.0374 138.105 67.9774 135.84 67.9174 131.85V130.095Z" fill="#979797"/>
</svg>
