<svg width="100" height="153" viewBox="0 0 100 153" fill="none" xmlns="http://www.w3.org/2000/svg">
<path d="M84.3749 52.375V47.5937L90.3749 42.3437C91.4809 41.3689 92.2067 40.0344 92.424 38.5762C92.6413 37.118 92.3362 35.63 91.5624 34.375L84.1874 21.875C83.6394 20.9258 82.8514 20.1374 81.9025 19.5889C80.9537 19.0404 79.8772 18.7511 78.7812 18.75C78.102 18.7448 77.4264 18.8503 76.7812 19.0625L69.1874 21.625C67.8781 20.7509 66.5103 19.9678 65.0937 19.2812L63.4999 11.4062C63.2142 9.9675 62.4315 8.67512 61.2889 7.75531C60.1462 6.8355 58.7165 6.34688 57.2499 6.37499H42.6249C41.1584 6.34688 39.7286 6.8355 38.586 7.75531C37.4434 8.67512 36.6607 9.9675 36.3749 11.4062L34.7812 19.2812C33.3561 19.9708 31.9781 20.7537 30.6562 21.625L23.2187 18.9375C22.5665 18.7676 21.8911 18.7042 21.2187 18.75C20.1227 18.7511 19.0462 19.0404 18.0973 19.5889C17.1484 20.1374 16.3604 20.9258 15.8124 21.875L8.43743 34.375C7.70802 35.6281 7.43697 37.0958 7.67071 38.5267C7.90446 39.9577 8.62844 41.2629 9.71868 42.2187L15.6249 47.625V52.4062L9.71868 57.6562C8.59765 58.6187 7.85386 59.9473 7.61931 61.4061C7.38475 62.8649 7.67461 64.3596 8.43743 65.625L15.8124 78.125C16.3604 79.0742 17.1484 79.8626 18.0973 80.411C19.0462 80.9595 20.1227 81.2489 21.2187 81.25C21.8979 81.2552 22.5734 81.1496 23.2187 80.9375L30.8124 78.375C32.1217 79.2491 33.4895 80.0321 34.9062 80.7187L36.4999 88.5937C36.7857 90.0325 37.5684 91.3249 38.711 92.2447C39.8536 93.1645 41.2834 93.6531 42.7499 93.625H57.4999C58.9665 93.6531 60.3962 93.1645 61.5389 92.2447C62.6815 91.3249 63.4642 90.0325 63.7499 88.5937L65.3437 80.7187C66.7688 80.0292 68.1468 79.2462 69.4687 78.375L77.0312 80.9375C77.6764 81.1496 78.352 81.2552 79.0312 81.25C80.1272 81.2489 81.2037 80.9595 82.1525 80.411C83.1014 79.8626 83.8894 79.0742 84.4374 78.125L91.5624 65.625C92.2918 64.3719 92.5629 62.9042 92.3292 61.4732C92.0954 60.0423 91.3714 58.7371 90.2812 57.7812L84.3749 52.375ZM78.7812 75L68.0624 71.375C65.5517 73.4981 62.6844 75.1593 59.5937 76.2812L57.3749 87.5H42.6249L40.4062 76.4062C37.3398 75.2528 34.4879 73.5945 31.9687 71.5L21.2187 75L13.8437 62.5L22.3437 55C21.7659 51.7652 21.7659 48.4536 22.3437 45.2187L13.8437 37.5L21.2187 25L31.9374 28.625C34.4481 26.5018 37.3154 24.8407 40.4062 23.7187L42.6249 12.5H57.3749L59.5937 23.5937C62.6601 24.7472 65.512 26.4055 68.0312 28.5L78.7812 25L86.1562 37.5L77.6562 45C78.234 48.2348 78.234 51.5464 77.6562 54.7812L86.1562 62.5L78.7812 75Z" fill="#979797"/>
<path d="M50 68.75C46.2916 68.75 42.6665 67.6503 39.5831 65.5901C36.4996 63.5298 34.0964 60.6014 32.6773 57.1753C31.2581 53.7492 30.8868 49.9792 31.6103 46.3421C32.3338 42.7049 34.1195 39.364 36.7418 36.7418C39.364 34.1195 42.7049 32.3338 46.3421 31.6103C49.9792 30.8868 53.7492 31.2581 57.1753 32.6773C60.6014 34.0964 63.5298 36.4996 65.5901 39.5831C67.6503 42.6665 68.75 46.2916 68.75 50C68.7751 52.4693 68.3072 54.9187 67.3738 57.2049C66.4404 59.4911 65.0602 61.568 63.3141 63.3141C61.568 65.0602 59.4911 66.4404 57.2049 67.3738C54.9187 68.3072 52.4693 68.7751 50 68.75ZM50 37.5C48.348 37.4615 46.7053 37.7585 45.1713 38.3731C43.6373 38.9877 42.244 39.907 41.0755 41.0755C39.907 42.244 38.9877 43.6373 38.3731 45.1713C37.7585 46.7053 37.4615 48.348 37.5 50C37.4615 51.6521 37.7585 53.2947 38.3731 54.8287C38.9877 56.3627 39.907 57.756 41.0755 58.9245C42.244 60.093 43.6373 61.0124 45.1713 61.6269C46.7053 62.2415 48.348 62.5385 50 62.5C51.6521 62.5385 53.2947 62.2415 54.8287 61.6269C56.3627 61.0124 57.756 60.093 58.9245 58.9245C60.093 57.756 61.0124 56.3627 61.6269 54.8287C62.2415 53.2947 62.5385 51.6521 62.5 50C62.5385 48.348 62.2415 46.7053 61.6269 45.1713C61.0124 43.6373 60.093 42.244 58.9245 41.0755C57.756 39.907 56.3627 38.9877 54.8287 38.3731C53.2947 37.7585 51.6521 37.4615 50 37.5Z" fill="#979797"/>
<path d="M43.6726 114.615C43.9726 114.465 44.2726 114.39 44.5726 114.39C44.7226 114.39 45.0076 114.45 45.4276 114.57C45.8176 114.72 46.0276 115.08 46.0576 115.65L46.1026 116.865L46.0126 120.15C45.9226 121.95 45.8776 123.48 45.8776 124.74L45.9226 126.675C45.9526 126.945 45.9676 127.335 45.9676 127.845C45.9676 129.345 45.7576 130.35 45.3376 130.86C45.0676 131.13 44.7826 131.265 44.4826 131.265C43.8226 131.265 43.3426 130.83 43.0426 129.96C42.8626 129.51 42.7576 128.385 42.7276 126.585C42.6976 124.635 42.6076 123.585 42.4576 123.435C42.3676 123.285 41.1676 123.21 38.8576 123.21C37.0876 123.21 36.0826 123.195 35.8426 123.165C35.4526 123.105 35.1826 123.015 35.0326 122.895C34.7926 122.655 34.6726 122.31 34.6726 121.86C34.7026 121.17 34.9726 120.705 35.4826 120.465C36.0226 120.255 37.2976 120.135 39.3076 120.105C41.2576 120.045 42.3076 119.94 42.4576 119.79C42.6376 119.58 42.7426 118.905 42.7726 117.765C42.8626 116.625 42.9676 115.86 43.0876 115.47C43.2376 115.02 43.4326 114.735 43.6726 114.615ZM18.1126 128.79C18.1426 128.58 18.2926 128.295 18.5626 127.935C18.8626 127.575 19.3126 127.095 19.9126 126.495C22.4626 123.945 24.0076 122.175 24.5476 121.185C24.8176 120.585 24.9676 120.195 24.9976 120.015C25.0876 119.385 25.1476 118.71 25.1776 117.99C25.2376 116.91 25.2826 116.235 25.3126 115.965C25.3726 115.725 25.5076 115.455 25.7176 115.155C25.9576 114.855 26.1376 114.69 26.2576 114.66C26.4376 114.6 26.6926 114.57 27.0226 114.57C27.7426 114.57 28.1926 114.765 28.3726 115.155C28.4626 115.425 28.5076 115.95 28.5076 116.73C28.5076 117.33 28.4926 117.825 28.4626 118.215L28.3726 120.51L29.3626 121.5C30.2926 122.4 31.3126 123.495 32.4226 124.785C33.7426 126.345 34.5676 127.35 34.8976 127.8C35.1976 128.22 35.3476 128.565 35.3476 128.835C35.3476 129.135 35.1676 129.45 34.8076 129.78C34.4176 130.08 33.9976 130.23 33.5476 130.23C33.3076 130.23 32.9926 130.065 32.6026 129.735C32.0626 129.255 31.2076 128.415 30.0376 127.215C28.1176 125.235 27.0676 124.245 26.8876 124.245C26.6776 124.245 26.3626 124.515 25.9426 125.055L24.3226 126.945L22.3876 129.06C21.2176 130.41 20.2726 131.085 19.5526 131.085C18.9826 131.025 18.5776 130.8 18.3376 130.41C18.1576 130.14 18.0676 129.795 18.0676 129.375C18.0676 129.135 18.0826 128.94 18.1126 128.79ZM24.5476 141.57C24.5476 140.07 24.5626 139.215 24.5926 139.005C24.6526 138.675 24.7726 138.42 24.9526 138.24C25.3126 137.82 25.8976 137.565 26.7076 137.475C27.0676 137.445 28.4026 137.43 30.7126 137.43H33.7726L38.0026 137.475L40.0726 137.43C40.7026 137.4 41.0926 137.31 41.2426 137.16C41.3926 136.95 41.4976 136.635 41.5576 136.215C41.5576 135.795 41.4826 135.54 41.3326 135.45C41.1826 135.36 38.7676 135.285 34.0876 135.225C29.5276 135.225 26.9026 135.18 26.2126 135.09C25.6426 135 25.2526 134.85 25.0426 134.64C24.8026 134.4 24.6826 134.07 24.6826 133.65C24.6826 132.9 25.0126 132.465 25.6726 132.345C25.8826 132.315 28.8376 132.3 34.5376 132.3H38.2726C41.4826 132.3 43.2226 132.345 43.4926 132.435C43.9126 132.555 44.2276 132.78 44.4376 133.11C44.6176 133.41 44.7226 133.68 44.7526 133.92C44.7826 134.16 44.7976 134.97 44.7976 136.35V136.98C44.7976 138.78 44.4676 139.83 43.8076 140.13C43.1776 140.43 40.8076 140.58 36.6976 140.58H35.3476C30.6376 140.58 28.1626 140.655 27.9226 140.805C27.7426 140.895 27.6526 141.195 27.6526 141.705C27.6526 142.515 27.7126 142.98 27.8326 143.1C27.9226 143.19 28.8976 143.235 30.7576 143.235H32.8726C35.4526 143.235 38.2126 143.265 41.1526 143.325C42.8026 143.355 43.8076 143.4 44.1676 143.46C44.4976 143.49 44.7676 143.61 44.9776 143.82C45.2176 144.06 45.3526 144.375 45.3826 144.765C45.3826 145.125 45.2926 145.44 45.1126 145.71C44.7826 146.13 44.1826 146.385 43.3126 146.475C42.0526 146.535 39.2026 146.565 34.7626 146.565H25.8976L25.3126 145.98C24.9526 145.68 24.7276 145.32 24.6376 144.9C24.5776 144.36 24.5476 143.25 24.5476 141.57ZM75.6352 114.84C75.8452 114.63 76.1752 114.525 76.6252 114.525C77.3452 114.525 77.7652 114.675 77.8852 114.975C78.0352 115.335 78.1102 118.275 78.1102 123.795C78.1102 129.315 78.0352 132.255 77.8852 132.615C77.6752 133.005 77.3152 133.2 76.8052 133.2C76.1152 133.2 75.6052 132.945 75.2752 132.435C75.0652 132.105 74.9152 130.845 74.8252 128.655C74.7952 126.465 74.7202 125.34 74.6002 125.28C74.5102 125.19 73.5202 125.1 71.6302 125.01C70.0702 124.98 69.0352 124.875 68.5252 124.695C68.1052 124.545 67.8952 124.215 67.8952 123.705C67.8952 123.015 68.2252 122.565 68.8852 122.355C69.6052 122.115 70.8352 121.995 72.5752 121.995C73.9852 121.995 74.7352 121.905 74.8252 121.725C74.8852 121.425 74.9152 120.765 74.9152 119.745C74.9152 116.955 75.1552 115.32 75.6352 114.84ZM51.2902 117.405C51.2902 116.805 51.5752 116.37 52.1452 116.1C52.5052 115.95 54.1852 115.845 57.1852 115.785L63.2602 115.65C64.1602 115.59 64.7452 115.56 65.0152 115.56C66.8452 115.56 67.9402 115.86 68.3002 116.46C68.4502 116.7 68.5252 116.925 68.5252 117.135C68.5252 117.495 68.3452 117.84 67.9852 118.17C67.7752 118.32 67.5052 118.425 67.1752 118.485C66.8752 118.515 65.9602 118.56 64.4302 118.62C62.3302 118.68 61.2352 118.755 61.1452 118.845C60.9652 118.965 60.8602 119.505 60.8302 120.465L60.7852 121.59C60.7852 121.95 60.8152 122.28 60.8752 122.58C60.9952 123 61.5802 123.735 62.6302 124.785C63.8002 125.955 65.2552 127.17 66.9952 128.43C67.6252 128.91 68.0152 129.405 68.1652 129.915C68.1952 130.005 68.2102 130.11 68.2102 130.23C68.2102 130.65 68.0152 131.01 67.6252 131.31C67.3852 131.49 67.1452 131.61 66.9052 131.67H66.8152C66.6352 131.67 66.2752 131.52 65.7352 131.22C65.0452 130.83 64.4302 130.395 63.8902 129.915C62.7802 129.075 61.6702 128.205 60.5602 127.305C59.6902 126.585 59.1202 126.285 58.8502 126.405C58.7302 126.435 57.9052 127.26 56.3752 128.88C55.0252 130.38 54.0652 131.28 53.4952 131.58C53.1952 131.73 52.9402 131.805 52.7302 131.805C52.4602 131.805 52.1602 131.685 51.8302 131.445C51.5602 131.205 51.4252 130.815 51.4252 130.275C51.4252 129.735 51.5002 129.345 51.6502 129.105C51.7702 128.925 52.2052 128.46 52.9552 127.71L54.2602 126.315C55.7002 124.755 56.6302 123.615 57.0502 122.895C57.5002 122.085 57.7252 121.125 57.7252 120.015C57.7252 119.475 57.7102 119.175 57.6802 119.115C57.6202 118.995 57.4702 118.92 57.2302 118.89C56.6902 118.83 55.8202 118.8 54.6202 118.8C53.3902 118.8 52.5502 118.725 52.1002 118.575C51.5602 118.395 51.2902 118.005 51.2902 117.405ZM56.0602 140.85C56.1202 139.62 56.4802 138.465 57.1402 137.385C57.8002 136.365 58.7302 135.555 59.9302 134.955C60.8902 134.475 61.5352 134.19 61.8652 134.1C62.3152 133.95 62.9602 133.86 63.8002 133.83C64.9702 133.71 66.1402 133.65 67.3102 133.65C68.4802 133.65 69.4252 133.71 70.1452 133.83C70.5952 133.89 71.3152 134.055 72.3052 134.325C73.1152 134.595 73.7752 134.85 74.2852 135.09C74.9752 135.39 75.5602 135.885 76.0402 136.575C76.5802 137.295 76.9552 138.03 77.1652 138.78C77.2852 139.23 77.3452 139.59 77.3452 139.86C77.3452 140.13 77.2852 140.49 77.1652 140.94C76.8652 142.32 76.1002 143.49 74.8702 144.45C73.6102 145.38 72.0502 145.995 70.1902 146.295C69.5002 146.415 68.1652 146.475 66.1852 146.475H63.1252L61.1902 145.845C59.7202 145.365 58.6702 144.9 58.0402 144.45C57.4402 144 56.9452 143.355 56.5552 142.515C56.2252 141.795 56.0602 141.24 56.0602 140.85ZM59.5702 140.49C59.5702 140.7 59.6602 140.985 59.8402 141.345C60.0202 141.735 60.2002 141.99 60.3802 142.11C61.3102 142.8 63.4852 143.145 66.9052 143.145C69.0652 143.145 70.6102 142.92 71.5402 142.47C72.1402 142.14 72.6352 141.735 73.0252 141.255C73.3852 140.745 73.5652 140.28 73.5652 139.86C73.5652 138.54 72.4852 137.55 70.3252 136.89C69.8752 136.74 68.8852 136.62 67.3552 136.53L65.6902 136.485C65.0902 136.485 64.6102 136.515 64.2502 136.575C62.8702 136.785 61.8202 137.235 61.1002 137.925C60.7102 138.255 60.3502 138.69 60.0202 139.23C59.7202 139.71 59.5702 140.13 59.5702 140.49Z" fill="#979797"/>
</svg>
