<svg width="110" height="153" viewBox="0 0 110 153" fill="none" xmlns="http://www.w3.org/2000/svg">
<path d="M19 95C16.525 95 14.407 94.1195 12.646 92.3585C10.885 90.5975 10.003 88.478 10 86V32C10 29.525 10.882 27.407 12.646 25.646C14.41 23.885 16.528 23.003 19 23H37L55 5L73 23H91C93.475 23 95.5945 23.882 97.3585 25.646C99.1225 27.41 100.003 29.528 100 32V86C100 88.475 99.1195 90.5945 97.3585 92.3585C95.5975 94.1225 93.478 95.003 91 95H19ZM28 77H82L65.125 54.5L51.625 72.5L41.5 59L28 77ZM79.75 54.5C81.625 54.5 83.2195 53.8445 84.5335 52.5335C85.8475 51.2225 86.503 49.628 86.5 47.75C86.5 45.875 85.8445 44.282 84.5335 42.971C83.2225 41.66 81.628 41.003 79.75 41C77.875 41 76.282 41.657 74.971 42.971C73.66 44.285 73.003 45.878 73 47.75C73 49.625 73.657 51.2195 74.971 52.5335C76.285 53.8475 77.878 54.503 79.75 54.5ZM46.45 23H63.55L55 14.45L46.45 23Z" fill="#3C4045"/>
<path d="M30.5743 115.47C30.8143 115.26 31.2043 115.155 31.7443 115.155C32.1943 115.155 32.5393 115.275 32.7793 115.515C32.9293 115.695 33.0193 116.28 33.0493 117.27C33.0793 117.72 33.0943 119.22 33.0943 121.77L33.1393 126.225C33.1693 127.875 33.1843 129.855 33.1843 132.165C33.1843 133.815 33.1693 134.82 33.1393 135.18C33.0793 136.26 32.9893 136.905 32.8693 137.115C32.7193 137.385 32.5843 137.535 32.4643 137.565C32.2843 137.625 32.0593 137.655 31.7893 137.655C30.8593 137.655 30.2743 137.31 30.0343 136.62C29.9143 136.35 29.8093 134.64 29.7193 131.49C29.6893 128.46 29.6143 126.84 29.4943 126.63C29.4043 126.42 28.4893 126.3 26.7493 126.27C25.0093 126.18 23.8693 126.015 23.3293 125.775C22.8493 125.565 22.6543 125.1 22.7443 124.38C22.8043 124.05 22.9993 123.78 23.3293 123.57C23.5393 123.39 23.8393 123.27 24.2293 123.21C24.4393 123.18 25.2343 123.165 26.6143 123.165C28.3843 123.165 29.3443 123.09 29.4943 122.94C29.5843 122.79 29.6743 121.98 29.7643 120.51C29.9143 118.41 30.0193 117.135 30.0793 116.685C30.1693 116.055 30.3343 115.65 30.5743 115.47ZM5.64432 118.575C5.61432 118.485 5.59932 118.35 5.59932 118.17C5.59932 117.72 5.76432 117.375 6.09432 117.135C6.51432 116.835 7.32432 116.67 8.52432 116.64C10.0243 116.58 12.5743 116.55 16.1743 116.55L22.0693 116.505L22.5193 117C22.8493 117.33 23.0143 117.645 23.0143 117.945C23.0143 118.215 22.9243 118.485 22.7443 118.755C22.5643 119.055 22.2343 119.25 21.7543 119.34C21.3043 119.46 20.4343 119.52 19.1443 119.52C17.5243 119.55 16.5793 119.595 16.3093 119.655C16.0093 119.685 15.8143 119.865 15.7243 120.195C15.6043 120.465 15.4993 121.155 15.4093 122.265C15.3793 123.015 15.3793 123.48 15.4093 123.66C15.4393 123.87 15.5743 124.155 15.8143 124.515C16.2043 125.115 16.9843 125.955 18.1543 127.035C19.0843 127.935 20.2243 128.895 21.5743 129.915C22.5043 130.635 22.9693 131.265 22.9693 131.805C22.9693 132.225 22.7143 132.585 22.2043 132.885C21.9043 133.035 21.6343 133.11 21.3943 133.11C21.2143 133.11 21.0343 133.065 20.8543 132.975C20.4043 132.795 19.5043 132.165 18.1543 131.085C16.4143 129.675 15.1543 128.595 14.3743 127.845C14.2543 127.725 14.0893 127.665 13.8793 127.665C13.6993 127.665 13.2043 128.1 12.3943 128.97C11.6443 129.75 10.8643 130.695 10.0543 131.805C9.45432 132.585 8.98932 133.08 8.65932 133.29C8.26932 133.53 7.86432 133.65 7.44432 133.65C7.02432 133.65 6.63432 133.455 6.27432 133.065C5.88432 132.705 5.68932 132.405 5.68932 132.165C5.68932 131.535 6.43932 130.425 7.93932 128.835C9.97932 126.705 11.2393 125.25 11.7193 124.47C11.9293 124.17 12.1243 123.33 12.3043 121.95C12.4243 120.87 12.4843 120.3 12.4843 120.24C12.4843 120.03 12.4543 119.895 12.3943 119.835C12.1843 119.715 11.4943 119.64 10.3243 119.61C9.12432 119.55 8.31432 119.55 7.89432 119.61H7.66932C7.27932 119.61 6.87432 119.52 6.45432 119.34C5.94432 119.1 5.67432 118.845 5.64432 118.575ZM10.2793 142.02C10.2793 139.41 10.3693 137.625 10.5493 136.665C10.6993 136.005 10.9843 135.66 11.4043 135.63C11.5243 135.6 11.6743 135.585 11.8543 135.585C12.5743 135.585 13.0843 135.915 13.3843 136.575C13.4743 136.725 13.5493 137.715 13.6093 139.545C13.6093 141.345 13.6543 142.32 13.7443 142.47C13.8643 142.59 15.9643 142.65 20.0443 142.65H22.9693L32.0593 142.56L32.4643 143.055C32.7043 143.355 32.8243 143.715 32.8243 144.135C32.8243 144.615 32.6743 145.005 32.3743 145.305C32.0743 145.515 31.6243 145.635 31.0243 145.665C30.5443 145.725 28.6243 145.755 25.2643 145.755H20.8093H19.6843C15.1843 145.695 12.6193 145.635 11.9893 145.575C11.2393 145.485 10.7443 145.185 10.5043 144.675C10.5043 144.615 10.4893 144.57 10.4593 144.54C10.3393 144.12 10.2793 143.28 10.2793 142.02ZM64.8886 115.2C65.2486 115.2 65.5636 115.26 65.8336 115.38C66.1936 115.59 66.4336 115.875 66.5536 116.235C66.6736 116.505 66.7786 121.05 66.8686 129.87L66.9136 137.88C66.9136 141.54 66.8686 143.595 66.7786 144.045C66.7486 144.555 66.5686 144.96 66.2386 145.26C66.0286 145.53 65.8636 145.68 65.7436 145.71C65.6536 145.74 65.3386 145.755 64.7986 145.755C64.2286 145.725 63.8986 145.665 63.8086 145.575C63.4786 145.245 63.3136 143.355 63.3136 139.905V130.905L63.3586 116.73C63.3586 116.43 63.5086 116.115 63.8086 115.785C64.1086 115.425 64.3636 115.23 64.5736 115.2H64.8886ZM38.3386 138.195C38.3386 137.685 38.3986 137.295 38.5186 137.025C38.6986 136.665 38.9536 136.305 39.2836 135.945L40.3636 134.685L41.1286 133.785L41.8486 132.975C43.0486 131.535 44.1736 129.99 45.2236 128.34C45.7936 127.41 46.1836 126.42 46.3936 125.37C46.5736 124.5 46.6936 123 46.7536 120.87L46.8436 117.855L47.4736 117.315C47.8936 116.955 48.2086 116.775 48.4186 116.775C48.6886 116.775 48.9736 116.88 49.2736 117.09C49.5736 117.3 49.7686 117.51 49.8586 117.72C49.9786 117.96 50.0386 118.8 50.0386 120.24V121.725C49.9486 124.095 49.7986 125.595 49.5886 126.225C49.5286 126.465 49.9036 126.99 50.7136 127.8L52.6936 129.87L53.2786 130.455C53.4286 130.665 53.7436 131.01 54.2236 131.49L55.1236 132.525C56.8636 134.355 57.9436 135.72 58.3636 136.62C58.5436 136.98 58.6336 137.295 58.6336 137.565C58.6336 137.985 58.4536 138.33 58.0936 138.6C57.7936 138.84 57.4486 138.96 57.0586 138.96C56.8186 138.96 56.5786 138.885 56.3386 138.735C56.2186 138.645 55.8286 138.255 55.1686 137.565C50.7286 132.795 48.4186 130.38 48.2386 130.32H48.1486C47.9986 130.32 47.8486 130.395 47.6986 130.545C47.4886 130.755 47.1286 131.25 46.6186 132.03L46.2136 132.615L45.5386 133.56L44.9536 134.37C43.0936 136.95 41.9236 138.51 41.4436 139.05C40.9036 139.65 40.3936 139.95 39.9136 139.95C39.4936 139.95 39.1186 139.815 38.7886 139.545C38.6086 139.425 38.4886 139.26 38.4286 139.05C38.3686 138.87 38.3386 138.585 38.3386 138.195ZM97.9636 115.245C98.2636 115.185 98.4886 115.155 98.6386 115.155C99.3886 115.155 99.9136 115.47 100.214 116.1C100.304 116.31 100.379 117.225 100.439 118.845C100.469 119.505 100.484 121.5 100.484 124.83L100.529 130.815L100.574 144.9L100.259 145.35C100.079 145.59 99.9286 145.725 99.8086 145.755C99.7186 145.785 99.4336 145.8 98.9536 145.8C98.3836 145.8 98.0236 145.755 97.8736 145.665C97.6936 145.575 97.4986 145.335 97.2886 144.945C97.1986 144.735 97.1236 143.88 97.0636 142.38C97.0336 141.45 97.0186 137.385 97.0186 130.185L96.9736 122.085L97.0186 117.99C97.0486 116.61 97.1386 115.83 97.2886 115.65C97.5286 115.41 97.7536 115.275 97.9636 115.245ZM72.4036 121.635C72.6136 121.425 72.8086 121.305 72.9886 121.275C73.4686 121.185 73.9036 121.125 74.2936 121.095C74.8036 121.065 76.6486 121.05 79.8286 121.05H84.0586L92.2486 121.095L92.7436 121.545C93.1036 121.845 93.2536 122.175 93.1936 122.535C93.1036 122.865 92.9986 123.09 92.8786 123.21C92.6986 123.39 92.4586 123.555 92.1586 123.705C91.7986 123.885 90.2536 123.975 87.5236 123.975C84.7936 123.975 83.4286 124.035 83.4286 124.155C83.4286 124.245 83.6836 124.38 84.1936 124.56C84.7936 124.77 85.1086 124.905 85.1386 124.965C85.2886 125.055 85.5286 125.13 85.8586 125.19C86.2486 125.28 86.8486 125.565 87.6586 126.045C88.2286 126.405 88.7536 126.84 89.2336 127.35C89.6536 127.8 90.0136 128.43 90.3136 129.24C90.5536 129.78 90.6736 130.35 90.6736 130.95C90.6736 131.43 90.5686 132.06 90.3586 132.84C89.9686 134.22 89.2786 135.375 88.2886 136.305C87.4486 137.055 86.4586 137.58 85.3186 137.88C84.8086 138 84.4936 138.12 84.3736 138.24C84.3136 138.3 84.2536 138.69 84.1936 139.41V139.905C84.1936 140.295 84.2236 140.52 84.2836 140.58C84.3436 140.64 85.1236 140.67 86.6236 140.67H88.5586C91.2286 140.64 92.7886 140.7 93.2386 140.85C93.8086 141.15 94.0936 141.57 94.0936 142.11C94.0936 142.77 93.6886 143.265 92.8786 143.595C92.6086 143.715 89.3236 143.775 83.0236 143.775C78.3436 143.775 75.6586 143.76 74.9686 143.73C73.9486 143.73 73.3186 143.655 73.0786 143.505C72.5686 143.175 72.3136 142.83 72.3136 142.47C72.3136 142.26 72.3736 142.05 72.4936 141.84C72.6136 141.57 72.7636 141.345 72.9436 141.165C73.0636 141.135 74.3836 141.045 76.9036 140.895L80.6386 140.715L80.7736 139.635C80.8336 138.945 80.8336 138.51 80.7736 138.33C80.7136 138.18 80.3986 137.97 79.8286 137.7C79.3186 137.49 78.6286 137.085 77.7586 136.485C76.7986 135.825 76.2136 135.39 76.0036 135.18C75.4936 134.61 75.1186 133.8 74.8786 132.75C74.8186 132.48 74.7886 132.09 74.7886 131.58C74.7886 130.56 75.0586 129.54 75.5986 128.52C76.1686 127.44 76.9036 126.6 77.8036 126C78.6736 125.4 80.0386 124.755 81.8986 124.065L80.3236 123.975H80.2336L75.6886 123.84C74.4886 123.78 73.7236 123.735 73.3936 123.705C73.0636 123.645 72.7786 123.525 72.5386 123.345C72.2086 123.075 72.0436 122.79 72.0436 122.49C72.0436 122.22 72.1636 121.935 72.4036 121.635ZM76.2736 116.1C76.3336 116.04 77.7736 115.995 80.5936 115.965L85.6786 115.83H85.9486C86.3086 115.83 86.6686 115.905 87.0286 116.055C87.3886 116.265 87.6436 116.535 87.7936 116.865C87.8536 116.955 87.8836 117.135 87.8836 117.405C87.8836 117.645 87.8536 117.84 87.7936 117.99C87.6436 118.41 87.4486 118.695 87.2086 118.845C86.8486 119.025 85.8886 119.115 84.3286 119.115C83.1886 119.115 81.7336 119.07 79.9636 118.98C79.0636 118.95 78.2086 118.89 77.3986 118.8C77.0686 118.77 76.7536 118.665 76.4536 118.485C76.0036 118.155 75.7786 117.795 75.7786 117.405C75.7786 117.195 75.8536 116.94 76.0036 116.64L76.2736 116.1ZM78.0736 131.085C78.0136 131.445 77.9836 131.685 77.9836 131.805C77.9836 132.255 78.0886 132.63 78.2986 132.93C78.5686 133.38 79.1536 133.83 80.0536 134.28C80.6836 134.55 81.4636 134.685 82.3936 134.685C83.3236 134.685 84.1636 134.52 84.9136 134.19C85.8436 133.74 86.5036 133.185 86.8936 132.525C87.1036 132.135 87.2086 131.715 87.2086 131.265C87.2086 130.935 87.1636 130.62 87.0736 130.32C86.7736 129.21 85.6186 128.355 83.6086 127.755C83.1886 127.605 82.7236 127.53 82.2136 127.53C81.2236 127.53 80.3386 127.86 79.5586 128.52C78.8086 129.15 78.3136 130.005 78.0736 131.085Z" fill="#3C4045"/>
</svg>
