<svg width="103" height="153" viewBox="0 0 103 153" fill="none" xmlns="http://www.w3.org/2000/svg">
<path d="M81.2496 53.9167C81.4163 52.6667 81.4996 51.375 81.4996 50C81.4996 48.6667 81.4163 47.3333 81.2079 46.0833L89.6663 39.5C90.0308 39.1996 90.2798 38.7821 90.371 38.3186C90.4621 37.8552 90.3898 37.3744 90.1663 36.9583L82.1663 23.125C81.9307 22.7065 81.5547 22.3849 81.1047 22.2171C80.6548 22.0494 80.16 22.0462 79.7079 22.2083L69.7496 26.2083C67.6663 24.625 65.4579 23.2917 62.9996 22.2917L61.4996 11.7083C61.4258 11.2314 61.1834 10.7967 60.8164 10.4832C60.4495 10.1698 59.9822 9.99833 59.4996 10H43.4996C42.4996 10 41.7079 10.7083 41.5413 11.7083L40.0413 22.2917C37.5829 23.2917 35.3329 24.6667 33.2913 26.2083L23.3329 22.2083C22.4163 21.875 21.3746 22.2083 20.8746 23.125L12.9163 36.9583C12.4163 37.8333 12.5829 38.9167 13.4163 39.5L21.8746 46.0833C21.6663 47.3333 21.4996 48.7083 21.4996 50C21.4996 51.2917 21.5829 52.6667 21.7913 53.9167L13.3329 60.5C12.9685 60.8004 12.7194 61.2179 12.6282 61.6814C12.5371 62.1449 12.6094 62.6256 12.8329 63.0417L20.8329 76.875C21.3329 77.7917 22.3746 78.0833 23.2913 77.7917L33.2496 73.7917C35.3329 75.375 37.5413 76.7083 39.9996 77.7083L41.4996 88.2917C41.7079 89.2917 42.4996 90 43.4996 90H59.4996C60.4996 90 61.3329 89.2917 61.4579 88.2917L62.9579 77.7083C65.4163 76.7083 67.6663 75.375 69.7079 73.7917L79.6663 77.7917C80.5829 78.125 81.6246 77.7917 82.1246 76.875L90.1246 63.0417C90.6246 62.125 90.4163 61.0833 89.6246 60.5L81.2496 53.9167ZM51.4996 65C43.2496 65 36.4996 58.25 36.4996 50C36.4996 41.75 43.2496 35 51.4996 35C59.7496 35 66.4996 41.75 66.4996 50C66.4996 58.25 59.7496 65 51.4996 65Z" fill="#3C4045"/>
<path d="M45.1726 114.615C45.4726 114.465 45.7726 114.39 46.0726 114.39C46.2226 114.39 46.5076 114.45 46.9276 114.57C47.3176 114.72 47.5276 115.08 47.5576 115.65L47.6026 116.865L47.5126 120.15C47.4226 121.95 47.3776 123.48 47.3776 124.74L47.4226 126.675C47.4526 126.945 47.4676 127.335 47.4676 127.845C47.4676 129.345 47.2576 130.35 46.8376 130.86C46.5676 131.13 46.2826 131.265 45.9826 131.265C45.3226 131.265 44.8426 130.83 44.5426 129.96C44.3626 129.51 44.2576 128.385 44.2276 126.585C44.1976 124.635 44.1076 123.585 43.9576 123.435C43.8676 123.285 42.6676 123.21 40.3576 123.21C38.5876 123.21 37.5826 123.195 37.3426 123.165C36.9526 123.105 36.6826 123.015 36.5326 122.895C36.2926 122.655 36.1726 122.31 36.1726 121.86C36.2026 121.17 36.4726 120.705 36.9826 120.465C37.5226 120.255 38.7976 120.135 40.8076 120.105C42.7576 120.045 43.8076 119.94 43.9576 119.79C44.1376 119.58 44.2426 118.905 44.2726 117.765C44.3626 116.625 44.4676 115.86 44.5876 115.47C44.7376 115.02 44.9326 114.735 45.1726 114.615ZM19.6126 128.79C19.6426 128.58 19.7926 128.295 20.0626 127.935C20.3626 127.575 20.8126 127.095 21.4126 126.495C23.9626 123.945 25.5076 122.175 26.0476 121.185C26.3176 120.585 26.4676 120.195 26.4976 120.015C26.5876 119.385 26.6476 118.71 26.6776 117.99C26.7376 116.91 26.7826 116.235 26.8126 115.965C26.8726 115.725 27.0076 115.455 27.2176 115.155C27.4576 114.855 27.6376 114.69 27.7576 114.66C27.9376 114.6 28.1926 114.57 28.5226 114.57C29.2426 114.57 29.6926 114.765 29.8726 115.155C29.9626 115.425 30.0076 115.95 30.0076 116.73C30.0076 117.33 29.9926 117.825 29.9626 118.215L29.8726 120.51L30.8626 121.5C31.7926 122.4 32.8126 123.495 33.9226 124.785C35.2426 126.345 36.0676 127.35 36.3976 127.8C36.6976 128.22 36.8476 128.565 36.8476 128.835C36.8476 129.135 36.6676 129.45 36.3076 129.78C35.9176 130.08 35.4976 130.23 35.0476 130.23C34.8076 130.23 34.4926 130.065 34.1026 129.735C33.5626 129.255 32.7076 128.415 31.5376 127.215C29.6176 125.235 28.5676 124.245 28.3876 124.245C28.1776 124.245 27.8626 124.515 27.4426 125.055L25.8226 126.945L23.8876 129.06C22.7176 130.41 21.7726 131.085 21.0526 131.085C20.4826 131.025 20.0776 130.8 19.8376 130.41C19.6576 130.14 19.5676 129.795 19.5676 129.375C19.5676 129.135 19.5826 128.94 19.6126 128.79ZM26.0476 141.57C26.0476 140.07 26.0626 139.215 26.0926 139.005C26.1526 138.675 26.2726 138.42 26.4526 138.24C26.8126 137.82 27.3976 137.565 28.2076 137.475C28.5676 137.445 29.9026 137.43 32.2126 137.43H35.2726L39.5026 137.475L41.5726 137.43C42.2026 137.4 42.5926 137.31 42.7426 137.16C42.8926 136.95 42.9976 136.635 43.0576 136.215C43.0576 135.795 42.9826 135.54 42.8326 135.45C42.6826 135.36 40.2676 135.285 35.5876 135.225C31.0276 135.225 28.4026 135.18 27.7126 135.09C27.1426 135 26.7526 134.85 26.5426 134.64C26.3026 134.4 26.1826 134.07 26.1826 133.65C26.1826 132.9 26.5126 132.465 27.1726 132.345C27.3826 132.315 30.3376 132.3 36.0376 132.3H39.7726C42.9826 132.3 44.7226 132.345 44.9926 132.435C45.4126 132.555 45.7276 132.78 45.9376 133.11C46.1176 133.41 46.2226 133.68 46.2526 133.92C46.2826 134.16 46.2976 134.97 46.2976 136.35V136.98C46.2976 138.78 45.9676 139.83 45.3076 140.13C44.6776 140.43 42.3076 140.58 38.1976 140.58H36.8476C32.1376 140.58 29.6626 140.655 29.4226 140.805C29.2426 140.895 29.1526 141.195 29.1526 141.705C29.1526 142.515 29.2126 142.98 29.3326 143.1C29.4226 143.19 30.3976 143.235 32.2576 143.235H34.3726C36.9526 143.235 39.7126 143.265 42.6526 143.325C44.3026 143.355 45.3076 143.4 45.6676 143.46C45.9976 143.49 46.2676 143.61 46.4776 143.82C46.7176 144.06 46.8526 144.375 46.8826 144.765C46.8826 145.125 46.7926 145.44 46.6126 145.71C46.2826 146.13 45.6826 146.385 44.8126 146.475C43.5526 146.535 40.7026 146.565 36.2626 146.565H27.3976L26.8126 145.98C26.4526 145.68 26.2276 145.32 26.1376 144.9C26.0776 144.36 26.0476 143.25 26.0476 141.57ZM77.1352 114.84C77.3452 114.63 77.6752 114.525 78.1252 114.525C78.8452 114.525 79.2652 114.675 79.3852 114.975C79.5352 115.335 79.6102 118.275 79.6102 123.795C79.6102 129.315 79.5352 132.255 79.3852 132.615C79.1752 133.005 78.8152 133.2 78.3052 133.2C77.6152 133.2 77.1052 132.945 76.7752 132.435C76.5652 132.105 76.4152 130.845 76.3252 128.655C76.2952 126.465 76.2202 125.34 76.1002 125.28C76.0102 125.19 75.0202 125.1 73.1302 125.01C71.5702 124.98 70.5352 124.875 70.0252 124.695C69.6052 124.545 69.3952 124.215 69.3952 123.705C69.3952 123.015 69.7252 122.565 70.3852 122.355C71.1052 122.115 72.3352 121.995 74.0752 121.995C75.4852 121.995 76.2352 121.905 76.3252 121.725C76.3852 121.425 76.4152 120.765 76.4152 119.745C76.4152 116.955 76.6552 115.32 77.1352 114.84ZM52.7902 117.405C52.7902 116.805 53.0752 116.37 53.6452 116.1C54.0052 115.95 55.6852 115.845 58.6852 115.785L64.7602 115.65C65.6602 115.59 66.2452 115.56 66.5152 115.56C68.3452 115.56 69.4402 115.86 69.8002 116.46C69.9502 116.7 70.0252 116.925 70.0252 117.135C70.0252 117.495 69.8452 117.84 69.4852 118.17C69.2752 118.32 69.0052 118.425 68.6752 118.485C68.3752 118.515 67.4602 118.56 65.9302 118.62C63.8302 118.68 62.7352 118.755 62.6452 118.845C62.4652 118.965 62.3602 119.505 62.3302 120.465L62.2852 121.59C62.2852 121.95 62.3152 122.28 62.3752 122.58C62.4952 123 63.0802 123.735 64.1302 124.785C65.3002 125.955 66.7552 127.17 68.4952 128.43C69.1252 128.91 69.5152 129.405 69.6652 129.915C69.6952 130.005 69.7102 130.11 69.7102 130.23C69.7102 130.65 69.5152 131.01 69.1252 131.31C68.8852 131.49 68.6452 131.61 68.4052 131.67H68.3152C68.1352 131.67 67.7752 131.52 67.2352 131.22C66.5452 130.83 65.9302 130.395 65.3902 129.915C64.2802 129.075 63.1702 128.205 62.0602 127.305C61.1902 126.585 60.6202 126.285 60.3502 126.405C60.2302 126.435 59.4052 127.26 57.8752 128.88C56.5252 130.38 55.5652 131.28 54.9952 131.58C54.6952 131.73 54.4402 131.805 54.2302 131.805C53.9602 131.805 53.6602 131.685 53.3302 131.445C53.0602 131.205 52.9252 130.815 52.9252 130.275C52.9252 129.735 53.0002 129.345 53.1502 129.105C53.2702 128.925 53.7052 128.46 54.4552 127.71L55.7602 126.315C57.2002 124.755 58.1302 123.615 58.5502 122.895C59.0002 122.085 59.2252 121.125 59.2252 120.015C59.2252 119.475 59.2102 119.175 59.1802 119.115C59.1202 118.995 58.9702 118.92 58.7302 118.89C58.1902 118.83 57.3202 118.8 56.1202 118.8C54.8902 118.8 54.0502 118.725 53.6002 118.575C53.0602 118.395 52.7902 118.005 52.7902 117.405ZM57.5602 140.85C57.6202 139.62 57.9802 138.465 58.6402 137.385C59.3002 136.365 60.2302 135.555 61.4302 134.955C62.3902 134.475 63.0352 134.19 63.3652 134.1C63.8152 133.95 64.4602 133.86 65.3002 133.83C66.4702 133.71 67.6402 133.65 68.8102 133.65C69.9802 133.65 70.9252 133.71 71.6452 133.83C72.0952 133.89 72.8152 134.055 73.8052 134.325C74.6152 134.595 75.2752 134.85 75.7852 135.09C76.4752 135.39 77.0602 135.885 77.5402 136.575C78.0802 137.295 78.4552 138.03 78.6652 138.78C78.7852 139.23 78.8452 139.59 78.8452 139.86C78.8452 140.13 78.7852 140.49 78.6652 140.94C78.3652 142.32 77.6002 143.49 76.3702 144.45C75.1102 145.38 73.5502 145.995 71.6902 146.295C71.0002 146.415 69.6652 146.475 67.6852 146.475H64.6252L62.6902 145.845C61.2202 145.365 60.1702 144.9 59.5402 144.45C58.9402 144 58.4452 143.355 58.0552 142.515C57.7252 141.795 57.5602 141.24 57.5602 140.85ZM61.0702 140.49C61.0702 140.7 61.1602 140.985 61.3402 141.345C61.5202 141.735 61.7002 141.99 61.8802 142.11C62.8102 142.8 64.9852 143.145 68.4052 143.145C70.5652 143.145 72.1102 142.92 73.0402 142.47C73.6402 142.14 74.1352 141.735 74.5252 141.255C74.8852 140.745 75.0652 140.28 75.0652 139.86C75.0652 138.54 73.9852 137.55 71.8252 136.89C71.3752 136.74 70.3852 136.62 68.8552 136.53L67.1902 136.485C66.5902 136.485 66.1102 136.515 65.7502 136.575C64.3702 136.785 63.3202 137.235 62.6002 137.925C62.2102 138.255 61.8502 138.69 61.5202 139.23C61.2202 139.71 61.0702 140.13 61.0702 140.49Z" fill="#3C4045"/>
</svg>
