<svg width="100" height="100" viewBox="0 0 100 100" fill="none" xmlns="http://www.w3.org/2000/svg">
<path d="M49.9998 87.5H24.9998C22.7897 87.5 20.6701 86.622 19.1073 85.0592C17.5445 83.4964 16.6665 81.3768 16.6665 79.1667V29.1667C16.6665 26.9565 17.5445 24.8369 19.1073 23.2741C20.6701 21.7113 22.7897 20.8333 24.9998 20.8333H74.9998C77.21 20.8333 79.3296 21.7113 80.8924 23.2741C82.4552 24.8369 83.3332 26.9565 83.3332 29.1667V54.1667M66.6665 12.5V29.1667M33.3332 12.5V29.1667M16.6665 45.8333H83.3332M66.6665 91.6667L87.4998 70.8333M87.4998 70.8333V89.5833M87.4998 70.8333H68.7498" stroke="#979797" stroke-width="8.33333" stroke-linecap="round" stroke-linejoin="round"/>
</svg>
