<svg width="100" height="100" viewBox="0 0 100 100" fill="none" xmlns="http://www.w3.org/2000/svg">
<g clip-path="url(#clip0_1376_650)">
<path d="M50 0C22.3859 0 0 22.3859 0 50C0 77.6156 22.3859 100 50 100C77.6156 100 100 77.6156 100 50C100 22.3859 77.6156 0 50 0ZM50 93.8484C25.8766 93.8484 6.25 74.1234 6.25 49.9998C6.25 25.8764 25.8766 6.2498 50 6.2498C74.1234 6.2498 93.75 25.8765 93.75 49.9998C93.75 74.1231 74.1234 93.8484 50 93.8484ZM67.6766 32.3234C66.4562 31.1031 64.4781 31.1031 63.2578 32.3234L50 45.5813L36.7422 32.3234C35.5219 31.1031 33.5438 31.1031 32.3219 32.3234C31.1016 33.5438 31.1016 35.5219 32.3219 36.7422L45.5797 50L32.3219 63.2578C31.1016 64.4766 31.1016 66.4579 32.3219 67.6767C33.5422 68.897 35.5203 68.897 36.7422 67.6767L50 54.4188L63.2578 67.6767C64.4781 68.897 66.4562 68.897 67.6766 67.6767C68.8969 66.4579 68.8969 64.4766 67.6766 63.2578L54.4187 50L67.6766 36.7422C68.8984 35.5203 68.8984 33.5422 67.6766 32.3234Z" fill="#3C4045"/>
</g>
<defs>
<clipPath id="clip0_1376_650">
<rect width="100" height="100" fill="white"/>
</clipPath>
</defs>
</svg>
