<svg width="100" height="100" viewBox="0 0 100 100" fill="none" xmlns="http://www.w3.org/2000/svg">
<path d="M50.0003 16.668C31.5878 16.668 16.667 31.593 16.667 50.0013C16.667 68.4096 31.5878 83.3346 50.0003 83.3346C68.4128 83.3346 83.3337 68.4096 83.3337 50.0013C83.3337 31.593 68.4128 16.668 50.0003 16.668ZM65.4462 59.5555C66.2274 60.3368 66.6664 61.3964 66.6664 62.5013C66.6664 63.6062 66.2274 64.6658 65.4462 65.4471C64.6649 66.2284 63.6052 66.6673 62.5003 66.6673C61.3954 66.6673 60.3358 66.2284 59.5545 65.4471L50.0003 55.893L40.4462 65.4471C40.0601 65.8354 39.6011 66.1435 39.0955 66.3538C38.59 66.564 38.0479 66.6723 37.5003 66.6723C36.9528 66.6723 36.4107 66.564 35.9051 66.3538C35.3996 66.1435 34.9405 65.8354 34.5545 65.4471C33.7734 64.6658 33.3345 63.6062 33.3345 62.5013C33.3345 61.3964 33.7734 60.3368 34.5545 59.5555L44.1087 50.0013L34.5545 40.4471C33.7732 39.6659 33.3343 38.6062 33.3343 37.5013C33.3343 36.3964 33.7732 35.3368 34.5545 34.5555C35.3358 33.7742 36.3954 33.3353 37.5003 33.3353C38.6052 33.3353 39.6649 33.7742 40.4462 34.5555L50.0003 44.1096L59.5545 34.5555C60.3358 33.7742 61.3954 33.3353 62.5003 33.3353C63.6052 33.3353 64.6649 33.7742 65.4462 34.5555C66.2274 35.3368 66.6664 36.3964 66.6664 37.5013C66.6664 38.6062 66.2274 39.6659 65.4462 40.4471L55.892 50.0013L65.4462 59.5555Z" fill="#D3D3D3"/>
</svg>
