<svg width="114" height="100" viewBox="0 0 114 100" fill="none" xmlns="http://www.w3.org/2000/svg">
<path d="M100.098 5.61375C85.1374 -4.58633 66.6639 0.173709 56.6905 11.8471C46.7171 0.173709 28.2436 -4.643 13.2835 5.61375C5.35006 11.0538 0.363347 20.2339 0.0233439 29.924C-0.769996 51.9108 18.7235 69.5343 48.4738 96.5645L49.0404 97.0745C53.3471 100.985 59.9772 100.985 64.2839 97.0179L64.9072 96.4512C94.6575 69.4776 114.094 51.8541 113.358 29.8673C113.018 20.2339 108.031 11.0538 100.098 5.61375ZM57.2572 88.1211L56.6905 88.6878L56.1238 88.1211C29.1503 63.6976 11.3568 47.5474 11.3568 31.1706C11.3568 19.8372 19.8568 11.3371 31.1903 11.3371C39.917 11.3371 48.4171 16.9472 51.4204 24.7106H62.0172C64.9639 16.9472 73.464 11.3371 82.1907 11.3371C93.5241 11.3371 102.024 19.8372 102.024 31.1706C102.024 47.5474 84.2307 63.6976 57.2572 88.1211Z" fill="#7EB5DF"/>
</svg>
