<svg width="100" height="100" viewBox="0 0 100 100" fill="none" xmlns="http://www.w3.org/2000/svg">
<path d="M75 66.6666C71.7167 66.6666 68.7542 67.9582 66.525 70.0291L37.125 52.9166C37.3333 51.9582 37.5 50.9999 37.5 49.9999C37.5 48.9999 37.3333 48.0416 37.125 47.0833L66.5 29.9583C68.75 32.0416 71.7083 33.3333 75 33.3333C81.9167 33.3333 87.5 27.7499 87.5 20.8333C87.5 13.9166 81.9167 8.33325 75 8.33325C68.0833 8.33325 62.5 13.9166 62.5 20.8333C62.5 21.8333 62.6667 22.7916 62.875 23.7499L33.5 40.8749C31.25 38.7916 28.2917 37.4999 25 37.4999C18.0833 37.4999 12.5 43.0833 12.5 49.9999C12.5 56.9166 18.0833 62.4999 25 62.4999C28.2917 62.4999 31.25 61.2082 33.5 59.1249L62.8667 76.2833C62.632 77.2267 62.509 78.1944 62.5 79.1666C62.5 81.6388 63.2331 84.0556 64.6066 86.1112C65.9801 88.1668 67.9324 89.769 70.2165 90.7151C72.5005 91.6612 75.0139 91.9087 77.4386 91.4264C79.8634 90.9441 82.0907 89.7536 83.8388 88.0054C85.587 86.2573 86.7775 84.03 87.2598 81.6052C87.7421 79.1805 87.4946 76.6671 86.5485 74.383C85.6024 72.099 84.0002 70.1467 81.9446 68.7732C79.889 67.3997 77.4723 66.6666 75 66.6666Z" fill="#979797"/>
</svg>
