<svg width="100" height="100" viewBox="0 0 100 100" fill="none" xmlns="http://www.w3.org/2000/svg">
<path d="M49.9998 70.8333L43.7498 77.0833C40.9869 79.8455 37.24 81.3972 33.3331 81.3972C29.4263 81.3972 25.6794 79.8455 22.9165 77.0833C20.1543 74.3204 18.6025 70.5735 18.6025 66.6666C18.6025 62.7598 20.1543 59.0129 22.9165 56.25L35.4165 43.75C38.1794 40.9878 41.9263 39.436 45.8331 39.436C49.74 39.436 53.4869 40.9878 56.2498 43.75" stroke="#979797" stroke-width="8.33333" stroke-linecap="round"/>
<path d="M50 29.1667L56.25 22.9167C59.0129 20.1545 62.7598 18.6028 66.6667 18.6028C70.5735 18.6028 74.3204 20.1545 77.0833 22.9167C79.8455 25.6796 81.3973 29.4265 81.3973 33.3334C81.3973 37.2402 79.8455 40.9871 77.0833 43.75L64.5833 56.25C61.8204 59.0122 58.0735 60.564 54.1667 60.564C50.2598 60.564 46.5129 59.0122 43.75 56.25" stroke="#979797" stroke-width="8.33333" stroke-linecap="round"/>
</svg>
