<svg width="100" height="100" viewBox="0 0 100 100" fill="none" xmlns="http://www.w3.org/2000/svg">
<path d="M45.833 29.1666H54.1663V37.5H45.833V29.1666ZM45.833 45.8333H54.1663V70.8333H45.833V45.8333ZM49.9997 8.33331C26.9997 8.33331 8.33301 27 8.33301 50C8.33301 73 26.9997 91.6667 49.9997 91.6667C72.9997 91.6667 91.6663 73 91.6663 50C91.6663 27 72.9997 8.33331 49.9997 8.33331ZM49.9997 83.3333C31.6247 83.3333 16.6663 68.375 16.6663 50C16.6663 31.625 31.6247 16.6666 49.9997 16.6666C68.3747 16.6666 83.333 31.625 83.333 50C83.333 68.375 68.3747 83.3333 49.9997 83.3333Z" fill="#979797"/>
</svg>
