<svg width="100" height="100" viewBox="0 0 100 100" fill="none" xmlns="http://www.w3.org/2000/svg">
<path d="M49.9997 83.3333H87.4997M62.4997 20.8333L74.9997 33.3333M68.2331 15.0917C69.8918 13.433 72.1415 12.5011 74.4872 12.5011C76.833 12.5011 79.0827 13.433 80.7414 15.0917C82.4001 16.7504 83.332 19.0001 83.332 21.3458C83.332 23.6916 82.4001 25.9413 80.7414 27.6L30.6997 77.6458C29.7085 78.6371 28.4832 79.3622 27.1372 79.7542L15.1706 83.2458C14.812 83.3504 14.432 83.3567 14.0702 83.264C13.7084 83.1713 13.3782 82.9831 13.1141 82.719C12.85 82.4549 12.6618 82.1247 12.5691 81.7629C12.4764 81.4011 12.4827 81.021 12.5872 80.6625L16.0789 68.6958C16.4715 67.3514 17.1966 66.1276 18.1872 65.1375L68.2331 15.0917Z" stroke="#3C4045" stroke-width="5.7" stroke-linecap="round" stroke-linejoin="round"/>
</svg>
