<svg width="100" height="100" viewBox="0 0 100 100" fill="none" xmlns="http://www.w3.org/2000/svg">
<path d="M75 37.5L71.5 72.4917C70.9708 77.7958 70.7083 80.4458 69.5 82.45C68.4402 84.2142 66.8816 85.6249 65.0208 86.5042C62.9083 87.5 60.25 87.5 54.9167 87.5H45.0833C39.7542 87.5 37.0917 87.5 34.9792 86.5C33.1169 85.6214 31.5567 84.2106 30.4958 82.4458C29.2958 80.4458 29.0292 77.7958 28.4958 72.4917L25 37.5M56.25 64.5833V43.75M43.75 64.5833V43.75M18.75 27.0833H37.9792M37.9792 27.0833L39.5875 15.95C40.0542 13.925 41.7375 12.5 43.6708 12.5H56.3292C58.2625 12.5 59.9417 13.925 60.4125 15.95L62.0208 27.0833M37.9792 27.0833H62.0208M62.0208 27.0833H81.25" stroke="#3C4045" stroke-width="5" stroke-linecap="round" stroke-linejoin="round"/>
</svg>
