<svg width="100" height="100" viewBox="0 0 100 100" fill="none" xmlns="http://www.w3.org/2000/svg">
<path d="M32.1663 68.5672L39.5038 66.4505L83.683 21.7422C84.0315 21.3851 84.2255 20.9052 84.2232 20.4063C84.2208 19.9073 84.0223 19.4293 83.6705 19.0755L81.0247 16.4005C80.8537 16.2248 80.6495 16.085 80.4238 15.9891C80.1982 15.8932 79.9558 15.8432 79.7106 15.842C79.4655 15.8409 79.2226 15.8886 78.9961 15.9823C78.7696 16.076 78.564 16.2139 78.3913 16.388L34.3288 60.9797L32.1663 68.5672ZM86.2622 11.1005L88.908 13.7797C92.558 17.4755 92.5913 23.438 88.9747 27.0963L43.4497 73.1713L27.7663 77.688C26.8088 77.956 25.7841 77.8332 24.917 77.3465C24.0499 76.8599 23.4113 76.0491 23.1413 75.0922C22.9404 74.4041 22.9375 73.6734 23.133 72.9838L27.6955 56.9838L73.0997 11.0297C73.963 10.1603 74.9909 9.47159 76.1232 9.00363C77.2555 8.53568 78.4697 8.29787 79.6949 8.30407C80.9201 8.31028 82.1318 8.56038 83.2593 9.03978C84.3869 9.51918 85.4077 10.2225 86.2622 11.1005ZM38.2663 15.9047C40.333 15.9047 42.008 17.6005 42.008 19.6922C42.0113 20.1866 41.9171 20.6769 41.7308 21.1349C41.5445 21.5929 41.2697 22.0097 40.9222 22.3615C40.5747 22.7132 40.1613 22.993 39.7056 23.1849C39.2499 23.3768 38.7608 23.4769 38.2663 23.4797H23.2997C19.1663 23.4797 15.8163 26.8713 15.8163 31.0505V76.4922C15.8163 80.6755 19.1663 84.0672 23.2997 84.0672H68.1997C72.333 84.0672 75.6872 80.6755 75.6872 76.4922V61.3463C75.6872 59.2547 77.3622 57.5588 79.4288 57.5588C81.4955 57.5588 83.1705 59.2547 83.1705 61.3505V76.4922C83.1705 84.8588 76.4663 91.6422 68.1997 91.6422H23.2997C15.033 91.6422 8.33301 84.8588 8.33301 76.4922V31.0505C8.33301 22.688 15.033 15.9047 23.2997 15.9047H38.2663Z" fill="#979797"/>
</svg>
